#define psf_width 15
#define psf_height 30
static unsigned char psf_bits[] = {
0x00, 0x00, 
0x00, 0x00, 
0x00, 0x00, 
0x00, 0x00, 
0x00, 0x00, 
0x78, 0x18, 
0xfc, 0x18, 
0xcc, 0x0c, 
0xcc, 0x0c, 
0xfc, 0x06, 
0x78, 0x06, 
0x00, 0x03, 
0x00, 0x03, 
0x80, 0x01, 
0x80, 0x01, 
0xc0, 0x00, 
0xc0, 0x00, 
0x60, 0x00, 
0x60, 0x00, 
0x30, 0x0f, 
0xb0, 0x1f, 
0x98, 0x19, 
0x98, 0x19, 
0x8c, 0x1f, 
0x0c, 0x0f, 
0x00, 0x00, 
0x00, 0x00, 
0x00, 0x00, 
0x00, 0x00, 
0x00, 0x00, 
};
