#define psf_width 15
#define psf_height 30
static unsigned char psf_bits[] = {
0x00, 0x00, 
0x00, 0x00, 
0x00, 0x00, 
0x00, 0x00, 
0x00, 0x00, 
0xf0, 0x01, 
0xf8, 0x03, 
0x1c, 0x07, 
0x0c, 0x06, 
0x0c, 0x06, 
0x0c, 0x06, 
0x1c, 0x07, 
0xb8, 0x03, 
0xf0, 0x01, 
0xf0, 0x00, 
0xf8, 0x31, 
0x9c, 0x3b, 
0x0e, 0x1f, 
0x06, 0x0e, 
0x06, 0x0c, 
0x06, 0x0c, 
0x06, 0x0e, 
0x0e, 0x1f, 
0xfc, 0x3b, 
0xf8, 0x31, 
0x00, 0x00, 
0x00, 0x00, 
0x00, 0x00, 
0x00, 0x00, 
0x00, 0x00, 
};
