#define psf_width 15
#define psf_height 30
static unsigned char psf_bits[] = {
0x00, 0x00, 
0x00, 0x00, 
0x00, 0x00, 
0x00, 0x00, 
0x00, 0x00, 
0x00, 0x00, 
0x00, 0x00, 
0x00, 0x00, 
0x00, 0x00, 
0x00, 0x00, 
0x00, 0x00, 
0xcc, 0x3f, 
0xec, 0x3f, 
0x7c, 0x00, 
0x3c, 0x00, 
0x1c, 0x00, 
0x0c, 0x00, 
0x0c, 0x00, 
0x0c, 0x00, 
0x0c, 0x00, 
0x0c, 0x00, 
0x0c, 0x00, 
0x0c, 0x00, 
0x0c, 0x00, 
0x0c, 0x00, 
0x00, 0x00, 
0x00, 0x00, 
0x00, 0x00, 
0x00, 0x00, 
0x00, 0x00, 
};
