#define psf_width 15
#define psf_height 30
static unsigned char psf_bits[] = {
0x00, 0x00, 
0x00, 0x00, 
0x00, 0x00, 
0xe0, 0x03, 
0xf0, 0x07, 
0x38, 0x0e, 
0x18, 0x0c, 
0x18, 0x00, 
0x38, 0x00, 
0xf0, 0x01, 
0xf0, 0x03, 
0x18, 0x07, 
0x18, 0x0e, 
0x18, 0x0c, 
0x18, 0x0c, 
0x18, 0x0c, 
0x38, 0x0c, 
0x70, 0x0c, 
0xe0, 0x07, 
0xc0, 0x07, 
0x00, 0x0e, 
0x00, 0x0c, 
0x18, 0x0c, 
0x38, 0x0e, 
0xf0, 0x07, 
0xe0, 0x03, 
0x00, 0x00, 
0x00, 0x00, 
0x00, 0x00, 
0x00, 0x00, 
};
