#define psf_width 15
#define psf_height 30
static unsigned char psf_bits[] = {
0x00, 0x00, 
0x00, 0x00, 
0x00, 0x00, 
0x00, 0x00, 
0x00, 0x00, 
0x00, 0x00, 
0x00, 0x00, 
0xf8, 0x0f, 
0xfc, 0x1f, 
0x0e, 0x38, 
0xe6, 0x33, 
0xf6, 0x37, 
0x36, 0x36, 
0x36, 0x30, 
0x36, 0x30, 
0x36, 0x30, 
0x36, 0x30, 
0x36, 0x36, 
0xf6, 0x37, 
0xe6, 0x33, 
0x0e, 0x38, 
0xfc, 0x1f, 
0xf8, 0x0f, 
0x00, 0x00, 
0x00, 0x00, 
0x00, 0x00, 
0x00, 0x00, 
0x00, 0x00, 
0x00, 0x00, 
0x00, 0x00, 
};
