#define psf_width 15
#define psf_height 30
static unsigned char psf_bits[] = {
0x00, 0x00, 
0x00, 0x00, 
0x00, 0x00, 
0x00, 0x00, 
0x00, 0x00, 
0xf8, 0x3f, 
0xfc, 0x3f, 
0x8e, 0x31, 
0x86, 0x31, 
0x86, 0x31, 
0x86, 0x31, 
0x86, 0x31, 
0x86, 0x31, 
0x8e, 0x31, 
0xfc, 0x31, 
0xf8, 0x31, 
0x80, 0x31, 
0x80, 0x31, 
0x80, 0x31, 
0x80, 0x31, 
0x80, 0x31, 
0x80, 0x31, 
0x80, 0x31, 
0x80, 0x31, 
0x80, 0x31, 
0x00, 0x00, 
0x00, 0x00, 
0x00, 0x00, 
0x00, 0x00, 
0x00, 0x00, 
};
