#define psf_width 15
#define psf_height 30
static unsigned char psf_bits[] = {
0x00, 0x00, 
0x00, 0x00, 
0x00, 0x00, 
0x00, 0x00, 
0x00, 0x00, 
0x18, 0x00, 
0x1c, 0x00, 
0x1e, 0x60, 
0x18, 0x70, 
0x18, 0x38, 
0x18, 0x1c, 
0x18, 0x0e, 
0x18, 0x07, 
0x98, 0x03, 
0xc0, 0x01, 
0xe0, 0x00, 
0x70, 0x3e, 
0x38, 0x7f, 
0x1c, 0x63, 
0x0e, 0x63, 
0x06, 0x30, 
0x00, 0x18, 
0x00, 0x0c, 
0x00, 0x7e, 
0x00, 0x7f, 
0x00, 0x00, 
0x00, 0x00, 
0x00, 0x00, 
0x00, 0x00, 
0x00, 0x00, 
};
