#define psf_width 15
#define psf_height 30
static unsigned char psf_bits[] = {
0x00, 0x00, 
0x00, 0x00, 
0x00, 0x00, 
0x00, 0x00, 
0x00, 0x00, 
0xfc, 0x00, 
0xfe, 0x01, 
0x86, 0x01, 
0xf0, 0x00, 
0xf0, 0x00, 
0x80, 0x61, 
0x86, 0x71, 
0xfe, 0x39, 
0xfc, 0x1c, 
0x00, 0x0e, 
0x00, 0x67, 
0x80, 0x73, 
0xc0, 0x79, 
0xe0, 0x6c, 
0x70, 0x66, 
0x38, 0x63, 
0x9c, 0x7f, 
0x8e, 0x7f, 
0x06, 0x60, 
0x00, 0x60, 
0x00, 0x00, 
0x00, 0x00, 
0x00, 0x00, 
0x00, 0x00, 
0x00, 0x00, 
};
