#define psf_width 15
#define psf_height 30
static unsigned char psf_bits[] = {
0x00, 0x00, 
0xf0, 0x18, 
0xd8, 0x19, 
0x98, 0x1b, 
0x18, 0x0f, 
0x00, 0x00, 
0x0c, 0x30, 
0x0c, 0x30, 
0x0c, 0x30, 
0x0c, 0x30, 
0x0c, 0x30, 
0x1c, 0x30, 
0x3c, 0x30, 
0x7c, 0x30, 
0xec, 0x30, 
0xcc, 0x31, 
0x8c, 0x33, 
0x0c, 0x37, 
0x0c, 0x3e, 
0x0c, 0x3c, 
0x0c, 0x38, 
0x0c, 0x30, 
0x0c, 0x30, 
0x0c, 0x30, 
0x0c, 0x30, 
0x0c, 0x30, 
0x00, 0x00, 
0x00, 0x00, 
0x00, 0x00, 
0x00, 0x00, 
};
