#define psf_width 15
#define psf_height 30
static unsigned char psf_bits[] = {
0x00, 0x00, 
0x00, 0x00, 
0x00, 0x00, 
0x00, 0x00, 
0x00, 0x00, 
0x38, 0x00, 
0x70, 0x00, 
0xe0, 0x00, 
0xc0, 0x01, 
0x00, 0x00, 
0x00, 0x00, 
0xe0, 0x01, 
0xe0, 0x01, 
0x80, 0x01, 
0x80, 0x01, 
0x80, 0x01, 
0x80, 0x01, 
0x80, 0x01, 
0x80, 0x01, 
0x80, 0x01, 
0x80, 0x01, 
0x80, 0x01, 
0x80, 0x01, 
0xe0, 0x07, 
0xe0, 0x07, 
0x00, 0x00, 
0x00, 0x00, 
0x00, 0x00, 
0x00, 0x00, 
0x00, 0x00, 
};
