#define psf_width 15
#define psf_height 30
static unsigned char psf_bits[] = {
0x00, 0x00, 
0x00, 0x00, 
0x00, 0x00, 
0x00, 0x00, 
0x00, 0x00, 
0x00, 0x18, 
0x00, 0x18, 
0xc0, 0x7f, 
0xc0, 0x7f, 
0x00, 0x18, 
0x00, 0x18, 
0xf8, 0x1f, 
0xfc, 0x1f, 
0x0e, 0x18, 
0x06, 0x18, 
0x06, 0x18, 
0x06, 0x18, 
0x06, 0x18, 
0x06, 0x18, 
0x06, 0x18, 
0x06, 0x18, 
0x06, 0x18, 
0x0e, 0x18, 
0xfc, 0x1f, 
0xf8, 0x1f, 
0x00, 0x00, 
0x00, 0x00, 
0x00, 0x00, 
0x00, 0x00, 
0x00, 0x00, 
};
