#define psf_width 15
#define psf_height 30
static unsigned char psf_bits[] = {
0x00, 0x00, 
0x00, 0x00, 
0x00, 0x00, 
0x00, 0x00, 
0x00, 0x00, 
0x80, 0x01, 
0x80, 0x01, 
0x80, 0x01, 
0x80, 0x01, 
0x00, 0x00, 
0x00, 0x00, 
0xf0, 0x0f, 
0xf8, 0x1f, 
0x1c, 0x38, 
0x0c, 0x30, 
0x0c, 0x30, 
0x0c, 0x30, 
0xfc, 0x3f, 
0xfc, 0x3f, 
0x0c, 0x00, 
0x0c, 0x00, 
0x0c, 0x00, 
0x1c, 0x30, 
0xf8, 0x3f, 
0xf0, 0x1f, 
0x00, 0x00, 
0x00, 0x00, 
0x00, 0x00, 
0x00, 0x00, 
0x00, 0x00, 
};
