#define psf_width 15
#define psf_height 30
static unsigned char psf_bits[] = {
0x00, 0x00, 
0xf0, 0x18, 
0xd8, 0x19, 
0x98, 0x1b, 
0x18, 0x0f, 
0x00, 0x00, 
0xe0, 0x07, 
0xe0, 0x07, 
0x80, 0x01, 
0x80, 0x01, 
0x80, 0x01, 
0x80, 0x01, 
0x80, 0x01, 
0x80, 0x01, 
0x80, 0x01, 
0x80, 0x01, 
0x80, 0x01, 
0x80, 0x01, 
0x80, 0x01, 
0x80, 0x01, 
0x80, 0x01, 
0x80, 0x01, 
0x80, 0x01, 
0x80, 0x01, 
0xe0, 0x07, 
0xe0, 0x07, 
0x00, 0x00, 
0x00, 0x00, 
0x00, 0x00, 
0x00, 0x00, 
};
