#define psf_width 15
#define psf_height 30
static unsigned char psf_bits[] = {
0x00, 0x00, 
0x00, 0x00, 
0x00, 0x00, 
0x00, 0x00, 
0x00, 0x00, 
0x0f, 0x3c, 
0x0f, 0x3c, 
0x06, 0x18, 
0x06, 0x18, 
0x06, 0x18, 
0x06, 0x18, 
0x06, 0x18, 
0x06, 0x18, 
0x06, 0x18, 
0x06, 0x18, 
0x06, 0x18, 
0x06, 0x18, 
0x06, 0x18, 
0x06, 0x18, 
0x66, 0x18, 
0x66, 0x18, 
0x66, 0x18, 
0xe6, 0x1c, 
0xcf, 0x0f, 
0x8f, 0x07, 
0x00, 0x00, 
0x00, 0x00, 
0x00, 0x00, 
0x00, 0x00, 
0x00, 0x00, 
};
