#define psf_width 15
#define psf_height 30
static unsigned char psf_bits[] = {
0x00, 0x00, 
0x00, 0x00, 
0x00, 0x00, 
0x00, 0x00, 
0x00, 0x00, 
0x0c, 0x60, 
0x0c, 0x60, 
0x0c, 0x60, 
0x0c, 0x60, 
0x00, 0x00, 
0x00, 0x00, 
0x0e, 0x78, 
0x0e, 0x78, 
0x0c, 0x60, 
0x0c, 0x60, 
0x0c, 0x60, 
0x0c, 0x60, 
0x0c, 0x60, 
0x0c, 0x60, 
0x0c, 0x60, 
0x0c, 0x60, 
0x0c, 0x60, 
0x0c, 0x60, 
0x1e, 0x60, 
0x1e, 0x60, 
0x80, 0x61, 
0x80, 0x73, 
0x00, 0x3f, 
0x00, 0x1e, 
0x00, 0x00, 
};
