#define psf_width 15
#define psf_height 30
static unsigned char psf_bits[] = {
0x00, 0x00, 
0x00, 0x00, 
0x00, 0x00, 
0x00, 0x00, 
0x00, 0x00, 
0xe0, 0x01, 
0xe0, 0x01, 
0x80, 0x01, 
0x80, 0x01, 
0x80, 0x01, 
0x80, 0x01, 
0x80, 0x01, 
0x80, 0x0d, 
0x80, 0x07, 
0x80, 0x03, 
0xc0, 0x01, 
0xe0, 0x01, 
0xb0, 0x01, 
0x80, 0x01, 
0x80, 0x01, 
0x80, 0x01, 
0x80, 0x01, 
0x80, 0x01, 
0xe0, 0x07, 
0xe0, 0x07, 
0x00, 0x00, 
0x00, 0x00, 
0x00, 0x00, 
0x00, 0x00, 
0x00, 0x00, 
};
