#define psf_width 15
#define psf_height 30
static unsigned char psf_bits[] = {
0x00, 0x00, 
0x00, 0x00, 
0x00, 0x00, 
0x00, 0x00, 
0x00, 0x00, 
0x00, 0x00, 
0x00, 0x00, 
0x00, 0x00, 
0x00, 0x00, 
0x00, 0x00, 
0x00, 0x00, 
0x8c, 0x3f, 
0xcc, 0x3f, 
0x6c, 0x00, 
0x3c, 0x00, 
0x1c, 0x00, 
0x0c, 0x00, 
0x0c, 0x00, 
0x0c, 0x00, 
0x0c, 0x00, 
0x0c, 0x00, 
0x0c, 0x00, 
0x0c, 0x00, 
0x0c, 0x00, 
0x0c, 0x00, 
0x00, 0x00, 
0x0c, 0x00, 
0x0c, 0x00, 
0x06, 0x00, 
0x03, 0x00, 
};
