#define psf_width 15
#define psf_height 30
static unsigned char psf_bits[] = {
0x00, 0x00, 
0x00, 0x00, 
0x00, 0x00, 
0x00, 0x00, 
0x00, 0x00, 
0xc0, 0x03, 
0x60, 0x06, 
0x60, 0x06, 
0x60, 0x06, 
0xc0, 0x03, 
0x00, 0x00, 
0x0c, 0x30, 
0x0c, 0x30, 
0x0c, 0x30, 
0x0c, 0x30, 
0x0c, 0x30, 
0x0c, 0x30, 
0x0c, 0x30, 
0x0c, 0x30, 
0x0c, 0x30, 
0x0c, 0x30, 
0x0c, 0x30, 
0x1c, 0x30, 
0xf8, 0x3f, 
0xf0, 0x3f, 
0x00, 0x00, 
0x00, 0x00, 
0x00, 0x00, 
0x00, 0x00, 
0x00, 0x00, 
};
