#define psf_width 15
#define psf_height 30
static unsigned char psf_bits[] = {
0x00, 0x00, 
0x00, 0x00, 
0x00, 0x00, 
0x00, 0x00, 
0x00, 0x00, 
0xf8, 0x07, 
0xfc, 0x0f, 
0x0e, 0x1c, 
0x06, 0x18, 
0x06, 0x18, 
0x06, 0x00, 
0x06, 0x00, 
0x06, 0x00, 
0x06, 0x00, 
0x86, 0x1f, 
0x86, 0x1f, 
0x06, 0x18, 
0x06, 0x18, 
0x86, 0x7f, 
0x86, 0x7f, 
0x06, 0x18, 
0x06, 0x18, 
0x0e, 0x1c, 
0xfc, 0x0f, 
0xf8, 0x07, 
0x00, 0x00, 
0x00, 0x00, 
0x00, 0x00, 
0x00, 0x00, 
0x00, 0x00, 
};
