#define psf_width 15
#define psf_height 30
static unsigned char psf_bits[] = {
0x00, 0x00, 
0x00, 0x00, 
0x00, 0x00, 
0x00, 0x00, 
0x00, 0x00, 
0x00, 0x0e, 
0x00, 0x07, 
0x80, 0x03, 
0xc0, 0x01, 
0x00, 0x00, 
0x00, 0x00, 
0x7c, 0x1f, 
0xfc, 0x3f, 
0x80, 0x71, 
0x80, 0x61, 
0x80, 0x61, 
0xf8, 0x61, 
0xfc, 0x7f, 
0x8e, 0x7f, 
0x86, 0x01, 
0x86, 0x01, 
0x86, 0x01, 
0x8e, 0x63, 
0xfc, 0x7f, 
0xf8, 0x3e, 
0x00, 0x00, 
0x00, 0x00, 
0x00, 0x00, 
0x00, 0x00, 
0x00, 0x00, 
};
