#define psf_width 15
#define psf_height 30
static unsigned char psf_bits[] = {
0x00, 0x00, 
0x30, 0x0c, 
0x30, 0x0c, 
0xe0, 0x07, 
0xc0, 0x03, 
0x00, 0x00, 
0x00, 0x00, 
0x00, 0x00, 
0x00, 0x00, 
0x00, 0x00, 
0x00, 0x00, 
0x00, 0x00, 
0x00, 0x00, 
0x00, 0x00, 
0x00, 0x00, 
0x00, 0x00, 
0x00, 0x00, 
0x00, 0x00, 
0x00, 0x00, 
0x00, 0x00, 
0x00, 0x00, 
0x00, 0x00, 
0x00, 0x00, 
0x00, 0x00, 
0x00, 0x00, 
0x00, 0x00, 
0x00, 0x00, 
0x00, 0x00, 
0x00, 0x00, 
0x00, 0x00, 
};
