#define psf_width 15
#define psf_height 30
static unsigned char psf_bits[] = {
0x00, 0x00, 
0x00, 0x00, 
0x00, 0x00, 
0x00, 0x00, 
0x00, 0x00, 
0x00, 0x00, 
0x00, 0x00, 
0x00, 0x00, 
0x00, 0x00, 
0x00, 0x00, 
0x00, 0x00, 
0x30, 0x0f, 
0xb8, 0x1f, 
0x9c, 0x39, 
0x8c, 0x31, 
0x8c, 0x31, 
0x8c, 0x31, 
0x8c, 0x31, 
0x8c, 0x31, 
0x8c, 0x31, 
0x8c, 0x31, 
0x8c, 0x31, 
0x9c, 0x39, 
0xf8, 0x1f, 
0xf0, 0x0f, 
0x80, 0x01, 
0x80, 0x01, 
0x80, 0x01, 
0x80, 0x01, 
0x00, 0x00, 
};
