#define psf_width 15
#define psf_height 30
static unsigned char psf_bits[] = {
0x00, 0x00, 
0x00, 0x00, 
0x00, 0x00, 
0x00, 0x00, 
0x00, 0x00, 
0x18, 0x06, 
0x18, 0x06, 
0x18, 0x06, 
0x18, 0x06, 
0x00, 0x00, 
0x00, 0x00, 
0xf0, 0x00, 
0xf0, 0x00, 
0xc0, 0x00, 
0xc0, 0x00, 
0xc0, 0x00, 
0xc0, 0x00, 
0xc0, 0x00, 
0xc0, 0x00, 
0xc0, 0x00, 
0xc0, 0x00, 
0xc0, 0x00, 
0xc0, 0x01, 
0x80, 0x0f, 
0x00, 0x0f, 
0x00, 0x00, 
0x00, 0x00, 
0x00, 0x00, 
0x00, 0x00, 
0x00, 0x00, 
};
