#define psf_width 15
#define psf_height 30
static unsigned char psf_bits[] = {
0x00, 0x00, 
0x00, 0x00, 
0x00, 0x00, 
0x00, 0x00, 
0x00, 0x00, 
0xfc, 0x00, 
0xfc, 0x00, 
0xce, 0x00, 
0xc6, 0x00, 
0xc6, 0x00, 
0xc6, 0x00, 
0xc6, 0x00, 
0xc6, 0x0f, 
0xc6, 0x1f, 
0xc6, 0x38, 
0xc6, 0x30, 
0xc6, 0x30, 
0xc6, 0x30, 
0xc6, 0x30, 
0xc6, 0x30, 
0xc6, 0x30, 
0xc6, 0x30, 
0xc6, 0x38, 
0xc7, 0x1f, 
0xc3, 0x0f, 
0x00, 0x00, 
0x00, 0x00, 
0x00, 0x00, 
0x00, 0x00, 
0x00, 0x00, 
};
