#define psf_width 15
#define psf_height 30
static unsigned char psf_bits[] = {
0x00, 0x00, 
0x00, 0x00, 
0x00, 0x00, 
0x00, 0x00, 
0x00, 0x00, 
0x86, 0x01, 
0x86, 0x01, 
0x86, 0x01, 
0x86, 0x01, 
0x86, 0x01, 
0x86, 0x01, 
0x86, 0x01, 
0x86, 0x1f, 
0x86, 0x3f, 
0xfe, 0x71, 
0xfe, 0x61, 
0x86, 0x61, 
0x86, 0x61, 
0x86, 0x61, 
0x86, 0x61, 
0x86, 0x61, 
0x86, 0x61, 
0x86, 0x71, 
0x86, 0x3f, 
0x86, 0x1f, 
0x00, 0x00, 
0x00, 0x00, 
0x00, 0x00, 
0x00, 0x00, 
0x00, 0x00, 
};
