#define psf_width 15
#define psf_height 30
static unsigned char psf_bits[] = {
0x00, 0x00, 
0x00, 0x00, 
0x00, 0x00, 
0x00, 0x00, 
0x00, 0x00, 
0x7f, 0x00, 
0x7f, 0x00, 
0x0c, 0x00, 
0x0c, 0x00, 
0x0c, 0x00, 
0x0c, 0x00, 
0x0c, 0x00, 
0xfc, 0x07, 
0xfc, 0x0f, 
0x0c, 0x1c, 
0x0c, 0x18, 
0x0c, 0x18, 
0x0c, 0x18, 
0x0c, 0x18, 
0x0c, 0x18, 
0x0c, 0x18, 
0x0c, 0x18, 
0x0c, 0x18, 
0x0c, 0x18, 
0x0c, 0x18, 
0x00, 0x00, 
0x00, 0x00, 
0x00, 0x00, 
0x00, 0x00, 
0x00, 0x00, 
};
