#define psf_width 15
#define psf_height 30
static unsigned char psf_bits[] = {
0x00, 0x00, 
0x00, 0x00, 
0x00, 0x00, 
0x00, 0x00, 
0x00, 0x00, 
0xe0, 0x0f, 
0xf0, 0x0f, 
0x38, 0x0c, 
0x18, 0x0c, 
0x18, 0x0c, 
0x18, 0x0c, 
0x18, 0x0c, 
0x18, 0x0c, 
0x18, 0x0c, 
0x18, 0x0c, 
0x18, 0x0c, 
0x18, 0x0c, 
0x18, 0x0c, 
0x18, 0x0c, 
0x18, 0x0c, 
0x18, 0x0c, 
0x18, 0x0c, 
0x18, 0x0c, 
0xfc, 0x1f, 
0xfe, 0x3f, 
0x06, 0x30, 
0x06, 0x30, 
0x06, 0x30, 
0x06, 0x30, 
0x00, 0x00, 
};
