#define psf_width 15
#define psf_height 30
static unsigned char psf_bits[] = {
0x00, 0x00, 
0x00, 0x00, 
0x00, 0x00, 
0x00, 0x00, 
0x00, 0x00, 
0x00, 0x00, 
0x00, 0x00, 
0x00, 0x00, 
0x00, 0x00, 
0x00, 0x00, 
0x00, 0x00, 
0x8c, 0x31, 
0x8c, 0x31, 
0x8c, 0x31, 
0x9c, 0x39, 
0xb8, 0x1d, 
0xf0, 0x0f, 
0xe0, 0x07, 
0xf0, 0x0f, 
0xb8, 0x1d, 
0x9c, 0x39, 
0x8c, 0x31, 
0x8c, 0x31, 
0x8c, 0x31, 
0x8c, 0x31, 
0x00, 0x00, 
0x00, 0x00, 
0x00, 0x00, 
0x00, 0x00, 
0x00, 0x00, 
};
