#define psf_width 15
#define psf_height 30
static unsigned char psf_bits[] = {
0x00, 0x00, 
0x00, 0x00, 
0x00, 0x00, 
0x00, 0x00, 
0x00, 0x00, 
0x00, 0x00, 
0x00, 0x00, 
0x00, 0x00, 
0x00, 0x00, 
0x00, 0x00, 
0x00, 0x00, 
0xf0, 0x01, 
0xf8, 0x01, 
0x9c, 0x01, 
0x8c, 0x01, 
0x8c, 0x1f, 
0x8c, 0x3f, 
0x8c, 0x71, 
0x8c, 0x61, 
0x8c, 0x61, 
0x8c, 0x61, 
0x8c, 0x61, 
0x8c, 0x71, 
0x8e, 0x3f, 
0x86, 0x1f, 
0x00, 0x00, 
0x00, 0x00, 
0x00, 0x00, 
0x00, 0x00, 
0x00, 0x00, 
};
