#define psf_width 15
#define psf_height 30
static unsigned char psf_bits[] = {
0x00, 0x00, 
0x00, 0x00, 
0x00, 0x00, 
0x00, 0x00, 
0x00, 0x00, 
0x00, 0x00, 
0x00, 0x00, 
0x00, 0x00, 
0x00, 0x00, 
0x00, 0x00, 
0x00, 0x00, 
0xfc, 0x3f, 
0xfc, 0x3f, 
0x0c, 0x30, 
0x1c, 0x38, 
0x38, 0x1c, 
0x70, 0x0e, 
0xe0, 0x07, 
0xf0, 0x0f, 
0xb8, 0x1d, 
0x9c, 0x39, 
0x8c, 0x31, 
0x8c, 0x31, 
0x8c, 0x31, 
0x8c, 0x31, 
0x00, 0x00, 
0x00, 0x00, 
0x00, 0x00, 
0x00, 0x00, 
0x00, 0x00, 
};
