#define psf_width 15
#define psf_height 30
static unsigned char psf_bits[] = {
0x00, 0x00, 
0x00, 0x00, 
0x00, 0x00, 
0x00, 0x00, 
0x00, 0x00, 
0xfc, 0x3f, 
0xfc, 0x3f, 
0x0c, 0x00, 
0x0c, 0x00, 
0x0c, 0x00, 
0x0c, 0x00, 
0x0c, 0x00, 
0x0c, 0x00, 
0x0c, 0x00, 
0xfe, 0x01, 
0xfe, 0x01, 
0x0c, 0x00, 
0x0c, 0x00, 
0x0c, 0x00, 
0x0c, 0x00, 
0x0c, 0x00, 
0x0c, 0x00, 
0x0c, 0x00, 
0x0c, 0x00, 
0x0c, 0x00, 
0x00, 0x00, 
0x00, 0x00, 
0x00, 0x00, 
0x00, 0x00, 
0x00, 0x00, 
};
