#define psf_width 15
#define psf_height 30
static unsigned char psf_bits[] = {
0x00, 0x00, 
0x00, 0x00, 
0x00, 0x00, 
0x00, 0x00, 
0x00, 0x00, 
0x00, 0x00, 
0x00, 0x00, 
0x00, 0x00, 
0x00, 0x00, 
0x00, 0x00, 
0x00, 0x00, 
0xc6, 0x18, 
0xc6, 0x18, 
0xc6, 0x18, 
0xce, 0x1c, 
0xdc, 0x0e, 
0xf8, 0x07, 
0xf0, 0x03, 
0xf8, 0x07, 
0xdc, 0x0e, 
0xce, 0x1c, 
0xc6, 0x18, 
0xc6, 0x18, 
0xc6, 0x38, 
0xc6, 0x78, 
0x00, 0x60, 
0x00, 0x60, 
0x00, 0x60, 
0x00, 0x60, 
0x00, 0x00, 
};
