#define psf_width 15
#define psf_height 30
static unsigned char psf_bits[] = {
0x00, 0x00, 
0x00, 0x00, 
0x00, 0x00, 
0x00, 0x00, 
0x00, 0x00, 
0x00, 0x00, 
0x00, 0x00, 
0x00, 0x00, 
0x00, 0x00, 
0x00, 0x00, 
0x00, 0x00, 
0x0c, 0x30, 
0x0c, 0x38, 
0x6c, 0x1c, 
0x6c, 0x0e, 
0x6c, 0x07, 
0xec, 0x03, 
0xfc, 0x01, 
0xfc, 0x01, 
0xec, 0x03, 
0x6c, 0x07, 
0x6c, 0x0e, 
0x6c, 0x1c, 
0x0c, 0x38, 
0x0c, 0x30, 
0x00, 0x00, 
0x00, 0x00, 
0x00, 0x00, 
0x00, 0x00, 
0x00, 0x00, 
};
