#define psf_width 15
#define psf_height 30
static unsigned char psf_bits[] = {
0x00, 0x00, 
0x00, 0x00, 
0x00, 0x00, 
0x00, 0x00, 
0x00, 0x00, 
0x07, 0x18, 
0x07, 0x1c, 
0x06, 0x0e, 
0x06, 0x07, 
0x86, 0x03, 
0xc6, 0x01, 
0xe6, 0x00, 
0x76, 0x00, 
0x3e, 0x00, 
0x1e, 0x00, 
0x1e, 0x00, 
0x3e, 0x00, 
0x76, 0x00, 
0xe6, 0x00, 
0xc6, 0x01, 
0x86, 0x03, 
0x06, 0x07, 
0x06, 0x0e, 
0x06, 0x1c, 
0x06, 0x18, 
0x00, 0x00, 
0x00, 0x00, 
0x00, 0x00, 
0x00, 0x00, 
0x00, 0x00, 
};
