#define psf_width 15
#define psf_height 30
static unsigned char psf_bits[] = {
0x00, 0x00, 
0x00, 0x00, 
0x00, 0x00, 
0x00, 0x00, 
0x00, 0x00, 
0x06, 0x7f, 
0x06, 0x7f, 
0x06, 0x03, 
0x06, 0x03, 
0x06, 0x03, 
0x06, 0x03, 
0x06, 0x03, 
0x06, 0x03, 
0x06, 0x03, 
0xfe, 0x03, 
0xfe, 0x03, 
0x06, 0x03, 
0x06, 0x03, 
0x06, 0x03, 
0x06, 0x03, 
0x06, 0x03, 
0x06, 0x03, 
0x06, 0x03, 
0x06, 0x03, 
0x06, 0x03, 
0x00, 0x00, 
0x00, 0x00, 
0x00, 0x00, 
0x00, 0x00, 
0x00, 0x00, 
};
