#define psf_width 15
#define psf_height 30
static unsigned char psf_bits[] = {
0x00, 0x00, 
0x00, 0x00, 
0x00, 0x00, 
0x00, 0x00, 
0x00, 0x00, 
0x06, 0x18, 
0x06, 0x18, 
0x0c, 0x0c, 
0x0c, 0x0c, 
0x18, 0x06, 
0x18, 0x06, 
0x30, 0x03, 
0x30, 0x03, 
0xe0, 0x01, 
0xe0, 0x01, 
0xe0, 0x01, 
0xe0, 0x01, 
0x30, 0x03, 
0x30, 0x03, 
0x18, 0x06, 
0x18, 0x06, 
0x0c, 0x0c, 
0x0c, 0x0c, 
0x06, 0x38, 
0x06, 0x78, 
0x00, 0x60, 
0x00, 0x60, 
0x00, 0x60, 
0x00, 0x60, 
0x00, 0x00, 
};
