#define psf_width 15
#define psf_height 30
static unsigned char psf_bits[] = {
0x00, 0x00, 
0x00, 0x00, 
0x00, 0x00, 
0x00, 0x00, 
0x00, 0x00, 
0x0c, 0x30, 
0x0c, 0x30, 
0x18, 0x30, 
0x18, 0x30, 
0x30, 0x30, 
0x30, 0x30, 
0x60, 0x30, 
0x60, 0x38, 
0xc0, 0x1c, 
0xe0, 0x0f, 
0xf0, 0x07, 
0x38, 0x03, 
0x1c, 0x06, 
0x0c, 0x06, 
0x0c, 0x0c, 
0x0c, 0x0c, 
0x0c, 0x18, 
0x0c, 0x18, 
0x0c, 0x30, 
0x0c, 0x30, 
0x00, 0x00, 
0x00, 0x00, 
0x00, 0x00, 
0x00, 0x00, 
0x00, 0x00, 
};
