#define psf_width 15
#define psf_height 30
static unsigned char psf_bits[] = {
0x00, 0x00, 
0x00, 0x00, 
0x00, 0x00, 
0x00, 0x00, 
0x00, 0x00, 
0xe7, 0x01, 
0xff, 0x07, 
0x1e, 0x0e, 
0x0c, 0x0c, 
0x0c, 0x18, 
0x0c, 0x18, 
0x0c, 0x18, 
0x0c, 0x18, 
0x0c, 0x18, 
0x0c, 0x18, 
0x0c, 0x18, 
0x0c, 0x18, 
0x0c, 0x18, 
0x0c, 0x18, 
0x0c, 0x18, 
0x0c, 0x18, 
0x0c, 0x18, 
0x0c, 0x18, 
0x8c, 0x1f, 
0x8c, 0x1f, 
0x00, 0x00, 
0x00, 0x00, 
0x00, 0x00, 
0x00, 0x00, 
0x00, 0x00, 
};
