#define psf_width 15
#define psf_height 30
static unsigned char psf_bits[] = {
0x00, 0x00, 
0x00, 0x00, 
0x00, 0x00, 
0x00, 0x00, 
0x00, 0x00, 
0xf8, 0x01, 
0xf8, 0x03, 
0x00, 0x07, 
0x00, 0x06, 
0x00, 0x06, 
0x00, 0x06, 
0x00, 0x06, 
0x00, 0x06, 
0x00, 0x06, 
0x00, 0x06, 
0x00, 0x06, 
0x00, 0x06, 
0x00, 0x06, 
0x00, 0x06, 
0x00, 0x06, 
0x00, 0x06, 
0x00, 0x06, 
0x00, 0x06, 
0x00, 0x06, 
0x00, 0x06, 
0x00, 0x06, 
0x00, 0x06, 
0x00, 0x06, 
0x00, 0x06, 
0x00, 0x00, 
};
