#define psf_width 15
#define psf_height 30
static unsigned char psf_bits[] = {
0x00, 0x00, 
0x00, 0x00, 
0x00, 0x00, 
0x00, 0x00, 
0x00, 0x00, 
0x0c, 0x30, 
0x0c, 0x30, 
0x0c, 0x30, 
0x18, 0x30, 
0x18, 0x30, 
0x18, 0x30, 
0x30, 0x30, 
0x30, 0x30, 
0x30, 0x30, 
0x60, 0x18, 
0x60, 0x18, 
0x60, 0x18, 
0xc0, 0x0c, 
0xc0, 0x0c, 
0xc0, 0x0c, 
0x80, 0x07, 
0x80, 0x03, 
0xc0, 0x01, 
0xfc, 0x00, 
0x3c, 0x00, 
0x00, 0x00, 
0x00, 0x00, 
0x00, 0x00, 
0x00, 0x00, 
0x00, 0x00, 
};
