#define psf_width 15
#define psf_height 30
static unsigned char psf_bits[] = {
0x00, 0x00, 
0x00, 0x00, 
0x00, 0x00, 
0x00, 0x00, 
0x00, 0x00, 
0x38, 0x0c, 
0x7c, 0x0c, 
0x6c, 0x06, 
0x6c, 0x06, 
0x7c, 0x03, 
0x38, 0x03, 
0x80, 0x01, 
0x80, 0x01, 
0xc0, 0x00, 
0xc0, 0x00, 
0x60, 0x00, 
0x60, 0x00, 
0x30, 0x00, 
0x30, 0x00, 
0x98, 0x3b, 
0xd8, 0x7f, 
0xcc, 0x6e, 
0xcc, 0x6e, 
0xc6, 0x7f, 
0x86, 0x3b, 
0x00, 0x00, 
0x00, 0x00, 
0x00, 0x00, 
0x00, 0x00, 
0x00, 0x00, 
};
