#define psf_width 15
#define psf_height 30
static unsigned char psf_bits[] = {
0x00, 0x00, 
0x00, 0x00, 
0x00, 0x00, 
0x00, 0x00, 
0x00, 0x00, 
0x00, 0x00, 
0x00, 0x00, 
0x00, 0x00, 
0x00, 0x00, 
0x00, 0x00, 
0x00, 0x00, 
0x00, 0x00, 
0x00, 0x00, 
0x00, 0x00, 
0x00, 0x00, 
0x00, 0x00, 
0x00, 0x00, 
0x00, 0x00, 
0xf0, 0x03, 
0xf8, 0x07, 
0x00, 0x0c, 
0x00, 0x0c, 
0xf8, 0x0f, 
0xf8, 0x0f, 
0x18, 0x0c, 
0x18, 0x0c, 
0xf0, 0x07, 
0xe0, 0x03, 
0x00, 0x00, 
0x00, 0x00, 
};
