#define psf_width 15
#define psf_height 30
static unsigned char psf_bits[] = {
0x00, 0x00, 
0x00, 0x00, 
0x00, 0x00, 
0x00, 0x00, 
0x00, 0x00, 
0x00, 0x00, 
0x00, 0x00, 
0x00, 0x00, 
0x00, 0x00, 
0x00, 0x00, 
0x00, 0x00, 
0x00, 0x00, 
0x00, 0x00, 
0x00, 0x00, 
0x30, 0x00, 
0x30, 0x00, 
0x30, 0x00, 
0x30, 0x00, 
0x30, 0x1c, 
0x30, 0x0e, 
0x30, 0x07, 
0xb0, 0x03, 
0xf0, 0x01, 
0xf0, 0x01, 
0xb0, 0x03, 
0x30, 0x07, 
0x30, 0x0e, 
0x30, 0x1c, 
0x00, 0x00, 
0x00, 0x00, 
};
