#define psf_width 15
#define psf_height 30
static unsigned char psf_bits[] = {
0x00, 0x00, 
0x00, 0x00, 
0x00, 0x00, 
0x00, 0x00, 
0x00, 0x00, 
0xfe, 0x00, 
0xfe, 0x01, 
0x86, 0x03, 
0x06, 0x03, 
0x06, 0x03, 
0x06, 0x03, 
0x06, 0x03, 
0x06, 0x03, 
0x86, 0x03, 
0xfe, 0x0d, 
0xfe, 0x0c, 
0x06, 0x0c, 
0x86, 0x7f, 
0x86, 0x7f, 
0x06, 0x0c, 
0x06, 0x0c, 
0x06, 0x0c, 
0x06, 0x0c, 
0x06, 0x7c, 
0x06, 0x78, 
0x00, 0x00, 
0x00, 0x00, 
0x00, 0x00, 
0x00, 0x00, 
0x00, 0x00, 
};
