#define psf_width 15
#define psf_height 30
static unsigned char psf_bits[] = {
0x00, 0x00, 
0x00, 0x00, 
0x00, 0x00, 
0x00, 0x00, 
0x00, 0x00, 
0xf0, 0x0f, 
0xf8, 0x1f, 
0x7c, 0x38, 
0x6c, 0x30, 
0x6c, 0x30, 
0x6c, 0x00, 
0x6c, 0x00, 
0x6c, 0x00, 
0x6c, 0x00, 
0x6c, 0x00, 
0x6c, 0x00, 
0x6c, 0x00, 
0x6c, 0x00, 
0x6c, 0x00, 
0x6c, 0x00, 
0x6c, 0x30, 
0x6c, 0x30, 
0x7c, 0x38, 
0xf8, 0x1f, 
0xf0, 0x0f, 
0x00, 0x00, 
0x00, 0x00, 
0x00, 0x00, 
0x00, 0x00, 
0x00, 0x00, 
};
