#define psf_width 15
#define psf_height 30
static unsigned char psf_bits[] = {
0x00, 0x00, 
0x00, 0x00, 
0x00, 0x00, 
0x00, 0x00, 
0x00, 0x00, 
0x0c, 0x30, 
0x0c, 0x30, 
0x0c, 0x30, 
0x0c, 0x30, 
0x1c, 0x30, 
0x3c, 0x30, 
0x6c, 0x30, 
0xdc, 0x30, 
0xbc, 0x31, 
0x6c, 0x33, 
0xcc, 0x36, 
0x8c, 0x3d, 
0x0c, 0x3b, 
0x0c, 0x36, 
0x0c, 0x3c, 
0x0c, 0x38, 
0x0c, 0x30, 
0x0c, 0x30, 
0x0c, 0x30, 
0x0c, 0x30, 
0x00, 0x00, 
0x00, 0x00, 
0x00, 0x00, 
0x00, 0x00, 
0x00, 0x00, 
};
