#define psf_width 15
#define psf_height 30
static unsigned char psf_bits[] = {
0x00, 0x00, 
0x00, 0x00, 
0x00, 0x00, 
0x00, 0x00, 
0x00, 0x00, 
0xc1, 0x00, 
0xc1, 0x1c, 
0xc1, 0x3e, 
0xc3, 0x36, 
0xc3, 0x36, 
0xc7, 0x3e, 
0xc7, 0x1c, 
0xcf, 0x00, 
0xcd, 0x00, 
0xdd, 0x00, 
0xd9, 0x00, 
0xf9, 0x00, 
0xf1, 0x00, 
0xf1, 0x3e, 
0xe1, 0x3e, 
0xe1, 0x00, 
0xc1, 0x3e, 
0xc1, 0x3e, 
0xc1, 0x00, 
0xc1, 0x00, 
0x00, 0x00, 
0x00, 0x00, 
0x00, 0x00, 
0x00, 0x00, 
0x00, 0x00, 
};
