#define psf_width 15
#define psf_height 30
static unsigned char psf_bits[] = {
0x00, 0x00, 
0x00, 0x00, 
0x00, 0x00, 
0x00, 0x00, 
0x00, 0x00, 
0xf0, 0x0f, 
0xf8, 0x1f, 
0x1c, 0x38, 
0x0c, 0x30, 
0x0c, 0x30, 
0x0c, 0x30, 
0x0c, 0x30, 
0x0c, 0x30, 
0x0c, 0x30, 
0x0c, 0x30, 
0x0c, 0x30, 
0x0c, 0x30, 
0x0c, 0x30, 
0x1c, 0x38, 
0x38, 0x1c, 
0x70, 0x0e, 
0x60, 0x06, 
0x60, 0x06, 
0x7c, 0x3e, 
0x7c, 0x3e, 
0x00, 0x00, 
0x00, 0x00, 
0x00, 0x00, 
0x00, 0x00, 
0x00, 0x00, 
};
