#define psf_width 15
#define psf_height 30
static unsigned char psf_bits[] = {
0x00, 0x00, 
0x00, 0x00, 
0x00, 0x00, 
0x00, 0x00, 
0x00, 0x00, 
0x00, 0x00, 
0x00, 0x00, 
0x00, 0x00, 
0x00, 0x00, 
0xc0, 0x60, 
0xe0, 0x60, 
0x70, 0x60, 
0x38, 0x60, 
0x1c, 0x60, 
0xfe, 0x7f, 
0xfe, 0x7f, 
0x1c, 0x60, 
0x38, 0x60, 
0x70, 0x60, 
0xe0, 0x60, 
0xc0, 0x60, 
0x00, 0x00, 
0x00, 0x00, 
0x00, 0x00, 
0x00, 0x00, 
0x00, 0x00, 
0x00, 0x00, 
0x00, 0x00, 
0x00, 0x00, 
0x00, 0x00, 
};
