#define psf_width 15
#define psf_height 30
static unsigned char psf_bits[] = {
0x00, 0x00, 
0x00, 0x00, 
0x00, 0x00, 
0x00, 0x00, 
0x00, 0x00, 
0x06, 0x00, 
0x06, 0x00, 
0x06, 0x00, 
0x06, 0x00, 
0x06, 0x00, 
0x06, 0x00, 
0x06, 0x00, 
0x06, 0x00, 
0x86, 0x01, 
0x86, 0x03, 
0x06, 0x07, 
0x06, 0x0e, 
0x06, 0x1c, 
0xfe, 0x3f, 
0xfe, 0x3f, 
0x00, 0x1c, 
0x00, 0x0e, 
0x00, 0x07, 
0x80, 0x03, 
0x80, 0x01, 
0x00, 0x00, 
0x00, 0x00, 
0x00, 0x00, 
0x00, 0x00, 
0x00, 0x00, 
};
