#define psf_width 15
#define psf_height 30
static unsigned char psf_bits[] = {
0x00, 0x00, 
0x00, 0x00, 
0x00, 0x00, 
0x00, 0x00, 
0x00, 0x00, 
0x00, 0x00, 
0x00, 0x00, 
0x00, 0x00, 
0xfe, 0x00, 
0xfe, 0x00, 
0xf8, 0x00, 
0xdc, 0x18, 
0xcc, 0x18, 
0xc6, 0x30, 
0x06, 0x30, 
0x06, 0x30, 
0x06, 0x30, 
0x06, 0x30, 
0x0c, 0x18, 
0x1c, 0x1c, 
0xf8, 0x0f, 
0xf0, 0x07, 
0x00, 0x00, 
0x00, 0x00, 
0x00, 0x00, 
0x00, 0x00, 
0x00, 0x00, 
0x00, 0x00, 
0x00, 0x00, 
0x00, 0x00, 
};
