#define psf_width 15
#define psf_height 30
static unsigned char psf_bits[] = {
0x00, 0x00, 
0x00, 0x00, 
0x00, 0x00, 
0x00, 0x00, 
0x00, 0x00, 
0x00, 0x00, 
0x00, 0x00, 
0x00, 0x00, 
0x00, 0x00, 
0x60, 0x00, 
0x70, 0x00, 
0x38, 0x00, 
0xfc, 0x3f, 
0xfe, 0x3f, 
0x0f, 0x00, 
0x0f, 0x00, 
0xfe, 0x3f, 
0xfc, 0x3f, 
0x38, 0x00, 
0x70, 0x00, 
0x60, 0x00, 
0x00, 0x00, 
0x00, 0x00, 
0x00, 0x00, 
0x00, 0x00, 
0x00, 0x00, 
0x00, 0x00, 
0x00, 0x00, 
0x00, 0x00, 
0x00, 0x00, 
};
