#define psf_width 15
#define psf_height 30
static unsigned char psf_bits[] = {
0x00, 0x00, 
0x00, 0x00, 
0x00, 0x00, 
0x00, 0x00, 
0x00, 0x00, 
0x60, 0x06, 
0x60, 0x06, 
0x60, 0x06, 
0x60, 0x06, 
0x60, 0x06, 
0x60, 0x06, 
0x60, 0x06, 
0x60, 0x06, 
0x60, 0x06, 
0x60, 0x06, 
0x60, 0x06, 
0x60, 0x06, 
0x60, 0x06, 
0x6c, 0x36, 
0x7c, 0x3e, 
0x78, 0x1e, 
0xf0, 0x0f, 
0xe0, 0x07, 
0xc0, 0x03, 
0x80, 0x01, 
0x00, 0x00, 
0x00, 0x00, 
0x00, 0x00, 
0x00, 0x00, 
0x00, 0x00, 
};
