#define psf_width 15
#define psf_height 30
static unsigned char psf_bits[] = {
0x00, 0x00, 
0x00, 0x00, 
0x00, 0x00, 
0x00, 0x00, 
0x00, 0x00, 
0xfc, 0x01, 
0xfc, 0x07, 
0x00, 0x0e, 
0x00, 0x18, 
0x00, 0x18, 
0x00, 0x30, 
0x00, 0x30, 
0x00, 0x30, 
0x00, 0x30, 
0xfc, 0x3f, 
0xfc, 0x3f, 
0x00, 0x30, 
0x00, 0x30, 
0x00, 0x30, 
0x00, 0x30, 
0x00, 0x18, 
0x00, 0x18, 
0x00, 0x0e, 
0xfc, 0x07, 
0xfc, 0x01, 
0x00, 0x00, 
0x00, 0x00, 
0x00, 0x00, 
0x00, 0x00, 
0x00, 0x00, 
};
