#define psf_width 15
#define psf_height 30
static unsigned char psf_bits[] = {
0x00, 0x00, 
0x00, 0x00, 
0x06, 0x00, 
0x06, 0x00, 
0x0c, 0x00, 
0xfc, 0x01, 
0xfc, 0x07, 
0x18, 0x0e, 
0x30, 0x18, 
0x30, 0x18, 
0x60, 0x30, 
0x60, 0x30, 
0xc0, 0x30, 
0xc0, 0x30, 
0xfc, 0x3f, 
0xfc, 0x3f, 
0x80, 0x31, 
0x80, 0x31, 
0x00, 0x33, 
0x00, 0x33, 
0x00, 0x16, 
0x00, 0x1e, 
0x00, 0x0e, 
0xfc, 0x0f, 
0xfc, 0x19, 
0x00, 0x18, 
0x00, 0x30, 
0x00, 0x30, 
0x00, 0x00, 
0x00, 0x00, 
};
