#define psf_width 15
#define psf_height 30
static unsigned char psf_bits[] = {
0x00, 0x00, 
0x00, 0x00, 
0x00, 0x3c, 
0x00, 0x3c, 
0x00, 0x0c, 
0x00, 0x0c, 
0x00, 0x0c, 
0x00, 0x0c, 
0x00, 0x0c, 
0x00, 0x0c, 
0x00, 0x0c, 
0x00, 0x0c, 
0x00, 0x0c, 
0x00, 0x0c, 
0x06, 0x0c, 
0x06, 0x0c, 
0x06, 0x0c, 
0x0e, 0x0c, 
0x1c, 0x0c, 
0x38, 0x0c, 
0x70, 0x0c, 
0xe0, 0x0c, 
0xc0, 0x0d, 
0x80, 0x0f, 
0x00, 0x0f, 
0x00, 0x00, 
0x00, 0x00, 
0x00, 0x00, 
0x00, 0x00, 
0x00, 0x00, 
};
