#define psf_width 15
#define psf_height 30
static unsigned char psf_bits[] = {
0x00, 0x00, 
0x00, 0x00, 
0x00, 0x00, 
0x00, 0x00, 
0x00, 0x00, 
0x00, 0x18, 
0x00, 0x18, 
0x00, 0x0c, 
0x00, 0x0c, 
0xf0, 0x07, 
0xf8, 0x0f, 
0x0c, 0x1b, 
0x0c, 0x1b, 
0x8c, 0x19, 
0x8c, 0x19, 
0xcc, 0x18, 
0xcc, 0x18, 
0x6c, 0x18, 
0x6c, 0x18, 
0xf8, 0x0f, 
0xf0, 0x07, 
0x18, 0x00, 
0x18, 0x00, 
0x0c, 0x00, 
0x0c, 0x00, 
0x00, 0x00, 
0x00, 0x00, 
0x00, 0x00, 
0x00, 0x00, 
0x00, 0x00, 
};
