#define psf_width 15
#define psf_height 30
static unsigned char psf_bits[] = {
0x80, 0x01, 
0x80, 0x01, 
0x80, 0x01, 
0x80, 0x01, 
0x80, 0x01, 
0x80, 0x01, 
0x80, 0x01, 
0x80, 0x01, 
0x80, 0x01, 
0x80, 0x01, 
0x80, 0x01, 
0x80, 0x01, 
0x80, 0x01, 
0x80, 0x01, 
0x80, 0x01, 
0x80, 0x01, 
0x80, 0x01, 
0x80, 0x01, 
0x80, 0x01, 
0x80, 0x01, 
0x80, 0x01, 
0x8c, 0x01, 
0x8c, 0x01, 
0xfc, 0x01, 
0xf8, 0x00, 
0x00, 0x00, 
0x00, 0x00, 
0x00, 0x00, 
0x00, 0x00, 
0x00, 0x00, 
};
