#define psf_width 15
#define psf_height 30
static unsigned char psf_bits[] = {
0x00, 0x00, 
0x00, 0x00, 
0x00, 0x00, 
0x00, 0x00, 
0x00, 0x00, 
0x86, 0x01, 
0x86, 0x01, 
0x86, 0x01, 
0x86, 0x01, 
0x86, 0x01, 
0x86, 0x01, 
0xcc, 0x00, 
0x78, 0x00, 
0x30, 0x00, 
0x00, 0x00, 
0x00, 0x00, 
0xc0, 0x3f, 
0xc0, 0x3f, 
0x00, 0x06, 
0x00, 0x06, 
0x00, 0x06, 
0x00, 0x06, 
0x00, 0x06, 
0x00, 0x06, 
0x00, 0x06, 
0x00, 0x00, 
0x00, 0x00, 
0x00, 0x00, 
0x00, 0x00, 
0x00, 0x00, 
};
