#define psf_width 15
#define psf_height 30
static unsigned char psf_bits[] = {
0x00, 0x00, 
0x00, 0x00, 
0x00, 0x00, 
0x00, 0x00, 
0x00, 0x00, 
0xfc, 0x00, 
0xfe, 0x01, 
0x86, 0x01, 
0x06, 0x00, 
0x06, 0x00, 
0x06, 0x00, 
0x86, 0x01, 
0xfe, 0x01, 
0xfc, 0x00, 
0x00, 0x00, 
0x00, 0x00, 
0xc0, 0x1f, 
0xc0, 0x3f, 
0xc0, 0x30, 
0xc0, 0x30, 
0xc0, 0x1f, 
0xc0, 0x07, 
0xc0, 0x0e, 
0xc0, 0x1c, 
0xc0, 0x38, 
0x00, 0x00, 
0x00, 0x00, 
0x00, 0x00, 
0x00, 0x00, 
0x00, 0x00, 
};
