#define psf_width 15
#define psf_height 30
static unsigned char psf_bits[] = {
0x00, 0x00, 
0x00, 0x00, 
0x00, 0x00, 
0x00, 0x00, 
0x00, 0x00, 
0x86, 0x01, 
0x86, 0x01, 
0x8e, 0x01, 
0x9e, 0x01, 
0xb6, 0x01, 
0xe6, 0x01, 
0xc6, 0x01, 
0x86, 0x01, 
0x86, 0x01, 
0x00, 0x00, 
0x00, 0x00, 
0xc0, 0x00, 
0xc0, 0x00, 
0xc0, 0x00, 
0xc0, 0x00, 
0xc0, 0x00, 
0xc0, 0x00, 
0xc0, 0x00, 
0xc0, 0x3f, 
0xc0, 0x3f, 
0x00, 0x00, 
0x00, 0x00, 
0x00, 0x00, 
0x00, 0x00, 
0x00, 0x00, 
};
