#define psf_width 15
#define psf_height 30
static unsigned char psf_bits[] = {
0xc0, 0x03, 
0xc0, 0x03, 
0xc0, 0x03, 
0xc0, 0x03, 
0xc0, 0x03, 
0xc0, 0x03, 
0xc0, 0x03, 
0xc0, 0x03, 
0xc0, 0x03, 
0xc0, 0x03, 
0xc0, 0x03, 
0xc0, 0x03, 
0xc0, 0x03, 
0xff, 0x03, 
0xff, 0x7f, 
0xff, 0x7f, 
0xff, 0x03, 
0x00, 0x00, 
0x00, 0x00, 
0x00, 0x00, 
0x00, 0x00, 
0x00, 0x00, 
0x00, 0x00, 
0x00, 0x00, 
0x00, 0x00, 
0x00, 0x00, 
0x00, 0x00, 
0x00, 0x00, 
0x00, 0x00, 
0x00, 0x00, 
};
