#define psf_width 15
#define psf_height 30
static unsigned char psf_bits[] = {
0x80, 0x01, 
0x80, 0x01, 
0x80, 0x01, 
0x80, 0x01, 
0x80, 0x01, 
0x80, 0x01, 
0x80, 0x01, 
0x80, 0x01, 
0x80, 0x01, 
0x80, 0x01, 
0x80, 0x01, 
0x80, 0x01, 
0x80, 0x01, 
0x80, 0x7f, 
0xff, 0x7f, 
0xff, 0x7f, 
0xc0, 0x7f, 
0xc0, 0x03, 
0xc0, 0x03, 
0xc0, 0x03, 
0xc0, 0x03, 
0xc0, 0x03, 
0xc0, 0x03, 
0xc0, 0x03, 
0xc0, 0x03, 
0xc0, 0x03, 
0xc0, 0x03, 
0xc0, 0x03, 
0xc0, 0x03, 
0xc0, 0x03, 
};
