#define psf_width 15
#define psf_height 30
static unsigned char psf_bits[] = {
0x60, 0x06, 
0x60, 0x06, 
0x60, 0x06, 
0x60, 0x06, 
0x60, 0x06, 
0x60, 0x06, 
0x60, 0x06, 
0x60, 0x06, 
0x60, 0x06, 
0x60, 0x06, 
0x60, 0x06, 
0x60, 0x06, 
0x60, 0x06, 
0x60, 0x06, 
0x60, 0x06, 
0x60, 0x06, 
0x60, 0x06, 
0x60, 0x06, 
0x60, 0x06, 
0x60, 0x06, 
0x60, 0x06, 
0x60, 0x06, 
0x60, 0x06, 
0x60, 0x06, 
0x60, 0x06, 
0x60, 0x06, 
0x60, 0x06, 
0x60, 0x06, 
0x60, 0x06, 
0x60, 0x06, 
};
