#define psf_width 15
#define psf_height 30
static unsigned char psf_bits[] = {
0x01, 0x40, 
0x01, 0x40, 
0x03, 0x60, 
0x03, 0x60, 
0x06, 0x30, 
0x06, 0x30, 
0x0c, 0x18, 
0x0c, 0x18, 
0x18, 0x0c, 
0x18, 0x0c, 
0x30, 0x06, 
0x30, 0x06, 
0xe0, 0x03, 
0xe0, 0x03, 
0xc0, 0x01, 
0xc0, 0x01, 
0xe0, 0x03, 
0xe0, 0x03, 
0x30, 0x06, 
0x30, 0x06, 
0x18, 0x0c, 
0x18, 0x0c, 
0x0c, 0x18, 
0x0c, 0x18, 
0x06, 0x30, 
0x06, 0x30, 
0x03, 0x60, 
0x03, 0x60, 
0x01, 0x40, 
0x01, 0x40, 
};
