#define psf_width 15
#define psf_height 30
static unsigned char psf_bits[] = {
0xff, 0x1f, 
0xff, 0x1f, 
0xff, 0x1f, 
0xff, 0x1f, 
0xff, 0x1f, 
0xff, 0x1f, 
0xff, 0x1f, 
0xff, 0x1f, 
0xff, 0x1f, 
0xff, 0x1f, 
0xff, 0x1f, 
0xff, 0x1f, 
0xff, 0x1f, 
0xff, 0x1f, 
0xff, 0x1f, 
0xff, 0x1f, 
0xff, 0x1f, 
0xff, 0x1f, 
0xff, 0x1f, 
0xff, 0x1f, 
0xff, 0x1f, 
0xff, 0x1f, 
0xff, 0x1f, 
0xff, 0x1f, 
0xff, 0x1f, 
0xff, 0x1f, 
0xff, 0x1f, 
0xff, 0x1f, 
0xff, 0x1f, 
0xff, 0x1f, 
};
