#define psf_width 15
#define psf_height 30
static unsigned char psf_bits[] = {
0xff, 0x7f, 
0xff, 0x7f, 
0xff, 0x7f, 
0xff, 0x7f, 
0xff, 0x7f, 
0xff, 0x7f, 
0xff, 0x7f, 
0xff, 0x7f, 
0xff, 0x7f, 
0xff, 0x7f, 
0xff, 0x7f, 
0xff, 0x7f, 
0x3f, 0x7c, 
0x1f, 0x78, 
0x1f, 0x78, 
0x1f, 0x78, 
0x1f, 0x78, 
0x3f, 0x7c, 
0xff, 0x7f, 
0xff, 0x7f, 
0xff, 0x7f, 
0xff, 0x7f, 
0xff, 0x7f, 
0xff, 0x7f, 
0xff, 0x7f, 
0xff, 0x7f, 
0xff, 0x7f, 
0xff, 0x7f, 
0xff, 0x7f, 
0xff, 0x7f, 
};
