#define psf_width 15
#define psf_height 30
static unsigned char psf_bits[] = {
0x00, 0x00, 
0x00, 0x00, 
0x00, 0x00, 
0x00, 0x00, 
0x00, 0x00, 
0xf8, 0x1f, 
0xfc, 0x3f, 
0xfe, 0x7f, 
0xfe, 0x7f, 
0xfe, 0x7f, 
0xfe, 0x7f, 
0x8e, 0x71, 
0x8e, 0x71, 
0xfe, 0x7f, 
0xfe, 0x7f, 
0xfe, 0x7f, 
0xfe, 0x7f, 
0x0e, 0x70, 
0x1e, 0x78, 
0x3e, 0x7c, 
0xfe, 0x7f, 
0xfe, 0x7f, 
0xfe, 0x7f, 
0xfc, 0x3f, 
0xf8, 0x1f, 
0x00, 0x00, 
0x00, 0x00, 
0x00, 0x00, 
0x00, 0x00, 
0x00, 0x00, 
};
