#define psf_width 15
#define psf_height 30
static unsigned char psf_bits[] = {
0x00, 0x00, 
0x00, 0x00, 
0x00, 0x00, 
0x00, 0x00, 
0x00, 0x00, 
0x00, 0x00, 
0x00, 0x00, 
0x3c, 0x3c, 
0x7e, 0x7e, 
0x7e, 0x7e, 
0xfe, 0x7f, 
0xfe, 0x7f, 
0xfe, 0x7f, 
0xfe, 0x7f, 
0xfe, 0x7f, 
0xfc, 0x3f, 
0xfc, 0x3f, 
0xf8, 0x1f, 
0xf0, 0x0f, 
0xe0, 0x07, 
0xc0, 0x03, 
0x80, 0x01, 
0x00, 0x00, 
0x00, 0x00, 
0x00, 0x00, 
0x00, 0x00, 
0x00, 0x00, 
0x00, 0x00, 
0x00, 0x00, 
0x00, 0x00, 
};
