#define psf_width 15
#define psf_height 30
static unsigned char psf_bits[] = {
0x00, 0x00, 
0x00, 0x00, 
0x00, 0x00, 
0x00, 0x00, 
0x00, 0x00, 
0x00, 0x40, 
0x00, 0x60, 
0x00, 0x60, 
0x00, 0x30, 
0x00, 0x30, 
0x00, 0x18, 
0x00, 0x18, 
0x03, 0x0c, 
0x03, 0x0c, 
0x06, 0x06, 
0x06, 0x06, 
0x0c, 0x03, 
0x0c, 0x03, 
0x98, 0x01, 
0x98, 0x01, 
0xf0, 0x00, 
0xf0, 0x00, 
0x60, 0x00, 
0x60, 0x00, 
0x00, 0x00, 
0x00, 0x00, 
0x00, 0x00, 
0x00, 0x00, 
0x00, 0x00, 
0x00, 0x00, 
};
