#define psf_width 15
#define psf_height 30
static unsigned char psf_bits[] = {
0x00, 0x00, 
0x00, 0x00, 
0x00, 0x00, 
0x00, 0x00, 
0x00, 0x00, 
0x00, 0x60, 
0x00, 0x60, 
0x00, 0x70, 
0x00, 0x70, 
0x00, 0x38, 
0x00, 0x38, 
0x00, 0x1c, 
0x00, 0x1c, 
0x03, 0x0e, 
0x03, 0x0e, 
0x07, 0x07, 
0x07, 0x07, 
0x8e, 0x03, 
0x8e, 0x03, 
0xdc, 0x01, 
0xdc, 0x01, 
0xf8, 0x00, 
0xf8, 0x00, 
0x70, 0x00, 
0x70, 0x00, 
0x00, 0x00, 
0x00, 0x00, 
0x00, 0x00, 
0x00, 0x00, 
0x00, 0x00, 
};
