#define psf_width 15
#define psf_height 30
static unsigned char psf_bits[] = {
0x00, 0x00, 
0x00, 0x00, 
0x06, 0x00, 
0x06, 0x00, 
0x06, 0x00, 
0x06, 0x00, 
0x06, 0x00, 
0x06, 0x00, 
0x06, 0x00, 
0x06, 0x00, 
0x06, 0x00, 
0xfe, 0x03, 
0xfe, 0x03, 
0x00, 0x00, 
0x00, 0x00, 
0x60, 0x30, 
0x60, 0x30, 
0xe0, 0x30, 
0xe0, 0x31, 
0x60, 0x33, 
0x60, 0x36, 
0x60, 0x3c, 
0x60, 0x38, 
0x60, 0x30, 
0x60, 0x30, 
0x60, 0x30, 
0x00, 0x00, 
0x00, 0x00, 
0x00, 0x00, 
0x00, 0x00, 
};
