#define psf_width 15
#define psf_height 30
static unsigned char psf_bits[] = {
0x00, 0x00, 
0x00, 0x00, 
0x00, 0x00, 
0x00, 0x00, 
0x00, 0x00, 
0xf8, 0x38, 
0xfc, 0x39, 
0xdc, 0x1d, 
0xdc, 0x1d, 
0xfc, 0x0f, 
0xf8, 0x0e, 
0x00, 0x07, 
0x00, 0x07, 
0x80, 0x03, 
0x80, 0x03, 
0xc0, 0x01, 
0xc0, 0x01, 
0xe0, 0x00, 
0xe0, 0x00, 
0x70, 0x1f, 
0xf0, 0x3f, 
0xb8, 0x3b, 
0xb8, 0x3b, 
0x9c, 0x3f, 
0x1c, 0x1f, 
0x00, 0x00, 
0x00, 0x00, 
0x00, 0x00, 
0x00, 0x00, 
0x00, 0x00, 
};
