#define psf_width 15
#define psf_height 30
static unsigned char psf_bits[] = {
0x00, 0x00, 
0x00, 0x00, 
0x00, 0x00, 
0x00, 0x00, 
0x00, 0x00, 
0x00, 0x00, 
0x00, 0x00, 
0x00, 0x00, 
0x0e, 0x38, 
0x1c, 0x1c, 
0xf8, 0x0f, 
0xf8, 0x0f, 
0x1c, 0x1c, 
0x1c, 0x1c, 
0x1c, 0x1c, 
0x1c, 0x1c, 
0x1c, 0x1c, 
0x1c, 0x1c, 
0xf8, 0x0f, 
0xf8, 0x0f, 
0x1c, 0x1c, 
0x0e, 0x38, 
0x00, 0x00, 
0x00, 0x00, 
0x00, 0x00, 
0x00, 0x00, 
0x00, 0x00, 
0x00, 0x00, 
0x00, 0x00, 
0x00, 0x00, 
};
