#define psf_width 15
#define psf_height 30
static unsigned char psf_bits[] = {
0x00, 0x00, 
0x00, 0x00, 
0x00, 0x00, 
0xe0, 0x07, 
0xf0, 0x0f, 
0x78, 0x1e, 
0x38, 0x1c, 
0x38, 0x00, 
0x78, 0x00, 
0xf0, 0x03, 
0xf0, 0x07, 
0x38, 0x0f, 
0x38, 0x1e, 
0x38, 0x1c, 
0x38, 0x1c, 
0x38, 0x1c, 
0x78, 0x1c, 
0xf0, 0x1c, 
0xe0, 0x0f, 
0xc0, 0x0f, 
0x00, 0x1e, 
0x00, 0x1c, 
0x38, 0x1c, 
0x78, 0x1e, 
0xf0, 0x0f, 
0xe0, 0x07, 
0x00, 0x00, 
0x00, 0x00, 
0x00, 0x00, 
0x00, 0x00, 
};
