#define psf_width 15
#define psf_height 30
static unsigned char psf_bits[] = {
0x00, 0x00, 
0x00, 0x00, 
0x00, 0x00, 
0x00, 0x00, 
0x00, 0x00, 
0x00, 0x00, 
0x00, 0x00, 
0xf8, 0x1f, 
0xfc, 0x3f, 
0x0e, 0x70, 
0xf6, 0x67, 
0xf6, 0x6f, 
0x76, 0x6e, 
0x76, 0x6e, 
0x76, 0x6e, 
0xf6, 0x67, 
0xf6, 0x63, 
0xf6, 0x63, 
0x76, 0x67, 
0x76, 0x6e, 
0x0e, 0x70, 
0xfc, 0x3f, 
0xf8, 0x1f, 
0x00, 0x00, 
0x00, 0x00, 
0x00, 0x00, 
0x00, 0x00, 
0x00, 0x00, 
0x00, 0x00, 
0x00, 0x00, 
};
