#define psf_width 15
#define psf_height 30
static unsigned char psf_bits[] = {
0x00, 0x00, 
0x00, 0x00, 
0x00, 0x00, 
0x00, 0x00, 
0x00, 0x00, 
0xf8, 0x7f, 
0xfc, 0x7f, 
0x9e, 0x73, 
0x8e, 0x73, 
0x8e, 0x73, 
0x8e, 0x73, 
0x8e, 0x73, 
0x8e, 0x73, 
0x9e, 0x73, 
0xfc, 0x73, 
0xf8, 0x73, 
0x80, 0x73, 
0x80, 0x73, 
0x80, 0x73, 
0x80, 0x73, 
0x80, 0x73, 
0x80, 0x73, 
0x80, 0x73, 
0x80, 0x73, 
0x80, 0x73, 
0x00, 0x00, 
0x00, 0x00, 
0x00, 0x00, 
0x00, 0x00, 
0x00, 0x00, 
};
