#define psf_width 15
#define psf_height 30
static unsigned char psf_bits[] = {
0x00, 0x00, 
0x00, 0x00, 
0x00, 0x00, 
0x00, 0x00, 
0x00, 0x00, 
0x70, 0x00, 
0x78, 0x00, 
0x7c, 0x00, 
0x70, 0x00, 
0x70, 0x60, 
0x70, 0x70, 
0x70, 0x38, 
0x70, 0x1c, 
0x70, 0x0e, 
0x00, 0x07, 
0x80, 0x73, 
0xc0, 0x79, 
0xe0, 0x7c, 
0x70, 0x7e, 
0x38, 0x77, 
0x9c, 0x73, 
0xce, 0x7f, 
0xc6, 0x7f, 
0x00, 0x70, 
0x00, 0x70, 
0x00, 0x00, 
0x00, 0x00, 
0x00, 0x00, 
0x00, 0x00, 
0x00, 0x00, 
};
