#define psf_width 15
#define psf_height 30
static unsigned char psf_bits[] = {
0x00, 0x00, 
0x00, 0x00, 
0x00, 0x00, 
0x00, 0x00, 
0x00, 0x00, 
0x38, 0x00, 
0x3c, 0x00, 
0x3e, 0x60, 
0x38, 0x70, 
0x38, 0x38, 
0x38, 0x1c, 
0x38, 0x0e, 
0x38, 0x07, 
0xb8, 0x03, 
0xc0, 0x01, 
0xe0, 0x00, 
0x70, 0x3f, 
0xb8, 0x7f, 
0x9c, 0x73, 
0x8e, 0x73, 
0x06, 0x38, 
0x00, 0x1c, 
0x00, 0x0e, 
0x00, 0x7f, 
0x80, 0x7f, 
0x00, 0x00, 
0x00, 0x00, 
0x00, 0x00, 
0x00, 0x00, 
0x00, 0x00, 
};
