#define psf_width 15
#define psf_height 30
static unsigned char psf_bits[] = {
0x00, 0x00, 
0x00, 0x0e, 
0x00, 0x07, 
0x80, 0x03, 
0xc0, 0x01, 
0x00, 0x00, 
0x0e, 0x38, 
0x0e, 0x38, 
0x0e, 0x38, 
0x1c, 0x1c, 
0x1c, 0x1c, 
0x38, 0x0e, 
0x38, 0x0e, 
0x70, 0x07, 
0x70, 0x07, 
0xe0, 0x03, 
0xe0, 0x03, 
0xc0, 0x01, 
0xc0, 0x01, 
0xc0, 0x01, 
0xc0, 0x01, 
0xc0, 0x01, 
0xc0, 0x01, 
0xc0, 0x01, 
0xc0, 0x01, 
0xc0, 0x01, 
0x00, 0x00, 
0x00, 0x00, 
0x00, 0x00, 
0x00, 0x00, 
};
