#define psf_width 15
#define psf_height 30
static unsigned char psf_bits[] = {
0x00, 0x00, 
0xf8, 0x1c, 
0xdc, 0x1d, 
0xdc, 0x1d, 
0x9c, 0x0f, 
0x00, 0x00, 
0xf0, 0x07, 
0xf0, 0x07, 
0xc0, 0x01, 
0xc0, 0x01, 
0xc0, 0x01, 
0xc0, 0x01, 
0xc0, 0x01, 
0xc0, 0x01, 
0xc0, 0x01, 
0xc0, 0x01, 
0xc0, 0x01, 
0xc0, 0x01, 
0xc0, 0x01, 
0xc0, 0x01, 
0xc0, 0x01, 
0xc0, 0x01, 
0xc0, 0x01, 
0xc0, 0x01, 
0xf0, 0x07, 
0xf0, 0x07, 
0x00, 0x00, 
0x00, 0x00, 
0x00, 0x00, 
0x00, 0x00, 
};
