#define psf_width 15
#define psf_height 30
static unsigned char psf_bits[] = {
0x00, 0x00, 
0x00, 0x00, 
0x00, 0x00, 
0x00, 0x00, 
0x00, 0x00, 
0x1f, 0x7c, 
0x1f, 0x7c, 
0x0e, 0x38, 
0x0e, 0x38, 
0x0e, 0x38, 
0x0e, 0x38, 
0x0e, 0x38, 
0x0e, 0x38, 
0x0e, 0x38, 
0x0e, 0x38, 
0x0e, 0x38, 
0x0e, 0x38, 
0x0e, 0x38, 
0x0e, 0x38, 
0xee, 0x38, 
0xee, 0x38, 
0xee, 0x38, 
0xee, 0x3d, 
0xdf, 0x1f, 
0x9f, 0x0f, 
0x00, 0x00, 
0x00, 0x00, 
0x00, 0x00, 
0x00, 0x00, 
0x00, 0x00, 
};
