#define psf_width 15
#define psf_height 30
static unsigned char psf_bits[] = {
0x00, 0x00, 
0x00, 0x00, 
0x00, 0x00, 
0x00, 0x00, 
0x00, 0x00, 
0x00, 0x00, 
0x00, 0x00, 
0x00, 0x00, 
0x00, 0x00, 
0x00, 0x00, 
0x00, 0x00, 
0xfc, 0x0f, 
0xfe, 0x1f, 
0xcf, 0x3c, 
0xc7, 0x38, 
0xc7, 0x38, 
0xc7, 0x38, 
0xc7, 0x3f, 
0xc7, 0x3f, 
0xc7, 0x00, 
0xc7, 0x00, 
0xc7, 0x00, 
0xcf, 0x38, 
0xfe, 0x3f, 
0xfc, 0x1f, 
0x00, 0x00, 
0x00, 0x00, 
0x00, 0x00, 
0x00, 0x00, 
0x00, 0x00, 
};
