#define psf_width 15
#define psf_height 30
static unsigned char psf_bits[] = {
0x00, 0x00, 
0x00, 0x00, 
0x00, 0x00, 
0x00, 0x00, 
0x00, 0x00, 
0x00, 0x0e, 
0x00, 0x07, 
0x80, 0x03, 
0xc0, 0x01, 
0x00, 0x00, 
0x00, 0x00, 
0xce, 0x3f, 
0xee, 0x3f, 
0x7e, 0x00, 
0x3e, 0x00, 
0x1e, 0x00, 
0x0e, 0x00, 
0x0e, 0x00, 
0x0e, 0x00, 
0x0e, 0x00, 
0x0e, 0x00, 
0x0e, 0x00, 
0x0e, 0x00, 
0x0e, 0x00, 
0x0e, 0x00, 
0x00, 0x00, 
0x00, 0x00, 
0x00, 0x00, 
0x00, 0x00, 
0x00, 0x00, 
};
