#define psf_width 15
#define psf_height 30
static unsigned char psf_bits[] = {
0x00, 0x00, 
0xc0, 0x01, 
0xe0, 0x03, 
0x70, 0x07, 
0x38, 0x0e, 
0x00, 0x00, 
0x0e, 0x70, 
0x0e, 0x70, 
0x0e, 0x70, 
0x0e, 0x70, 
0x0e, 0x70, 
0x0e, 0x70, 
0x0e, 0x70, 
0x0e, 0x70, 
0x0e, 0x70, 
0x0e, 0x70, 
0x8e, 0x71, 
0xce, 0x73, 
0xce, 0x73, 
0xee, 0x77, 
0x7e, 0x7e, 
0x7e, 0x7e, 
0x3e, 0x7c, 
0x1e, 0x78, 
0x0e, 0x70, 
0x0e, 0x70, 
0x00, 0x00, 
0x00, 0x00, 
0x00, 0x00, 
0x00, 0x00, 
};
