#define psf_width 15
#define psf_height 30
static unsigned char psf_bits[] = {
0x00, 0x00, 
0x00, 0x00, 
0x00, 0x00, 
0x00, 0x00, 
0x00, 0x00, 
0x80, 0x1f, 
0xc0, 0x3f, 
0xc0, 0x39, 
0xc0, 0x39, 
0xc0, 0x01, 
0xc0, 0x01, 
0xc0, 0x01, 
0xc0, 0x01, 
0xf8, 0x0f, 
0xf8, 0x0f, 
0xc0, 0x01, 
0xc0, 0x01, 
0xc0, 0x01, 
0xc0, 0x01, 
0xc0, 0x01, 
0xc0, 0x01, 
0xc0, 0x01, 
0xc0, 0x01, 
0xc0, 0x01, 
0xc0, 0x01, 
0xce, 0x01, 
0xce, 0x01, 
0xfe, 0x01, 
0xfc, 0x00, 
0x00, 0x00, 
};
