#define psf_width 15
#define psf_height 30
static unsigned char psf_bits[] = {
0x00, 0x00, 
0x00, 0x00, 
0x00, 0x00, 
0x00, 0x00, 
0x00, 0x00, 
0x1c, 0x30, 
0x1c, 0x30, 
0x1c, 0x30, 
0x1c, 0x30, 
0x1c, 0x30, 
0x3c, 0x30, 
0x7c, 0x30, 
0xfc, 0x30, 
0xdc, 0x31, 
0x9c, 0x33, 
0x1c, 0x37, 
0x1c, 0x3e, 
0x1c, 0x3c, 
0x1c, 0x38, 
0x1c, 0x30, 
0x1c, 0x30, 
0x1c, 0x30, 
0x1c, 0x30, 
0x1c, 0x30, 
0x1c, 0x30, 
0x1c, 0x00, 
0x1c, 0x00, 
0x1e, 0x00, 
0x0f, 0x00, 
0x00, 0x00, 
};
