#define psf_width 15
#define psf_height 30
static unsigned char psf_bits[] = {
0x00, 0x00, 
0xfc, 0x1f, 
0xfc, 0x1f, 
0x00, 0x00, 
0x00, 0x00, 
0xfc, 0x3f, 
0xfe, 0x3f, 
0x8f, 0x03, 
0x87, 0x03, 
0x87, 0x03, 
0x87, 0x03, 
0x87, 0x03, 
0x87, 0x03, 
0x87, 0x03, 
0xff, 0x3f, 
0xff, 0x3f, 
0x87, 0x03, 
0x87, 0x03, 
0x87, 0x03, 
0x87, 0x03, 
0x87, 0x03, 
0x87, 0x03, 
0x87, 0x03, 
0x87, 0x3f, 
0x87, 0x3f, 
0x00, 0x00, 
0x00, 0x00, 
0x00, 0x00, 
0x00, 0x00, 
0x00, 0x00, 
};
