#define psf_width 15
#define psf_height 30
static unsigned char psf_bits[] = {
0x00, 0x00, 
0x00, 0x00, 
0x00, 0x00, 
0x00, 0x00, 
0x00, 0x00, 
0xc0, 0x71, 
0x80, 0x3b, 
0x00, 0x1f, 
0x00, 0x0e, 
0x00, 0x00, 
0x00, 0x00, 
0x80, 0x0f, 
0x80, 0x0f, 
0x00, 0x0e, 
0x00, 0x0e, 
0x00, 0x0e, 
0x00, 0x0e, 
0x00, 0x0e, 
0x00, 0x0e, 
0x00, 0x0e, 
0x00, 0x0e, 
0x00, 0x0e, 
0x00, 0x0e, 
0x00, 0x0e, 
0x00, 0x0e, 
0x0e, 0x0e, 
0x1e, 0x0f, 
0xfc, 0x07, 
0xf8, 0x03, 
0x00, 0x00, 
};
