#define psf_width 15
#define psf_height 30
static unsigned char psf_bits[] = {
0x00, 0x00, 
0x00, 0x00, 
0x00, 0x00, 
0x00, 0x00, 
0x00, 0x00, 
0x00, 0x0e, 
0x00, 0x07, 
0x80, 0x03, 
0xc0, 0x01, 
0x00, 0x00, 
0x00, 0x00, 
0x7e, 0x1f, 
0xfe, 0x3f, 
0xc0, 0x79, 
0xc0, 0x71, 
0xc0, 0x71, 
0xfc, 0x71, 
0xfe, 0x7f, 
0xcf, 0x7f, 
0xc7, 0x01, 
0xc7, 0x01, 
0xc7, 0x01, 
0xcf, 0x73, 
0xfe, 0x7f, 
0x7c, 0x3f, 
0x00, 0x00, 
0x00, 0x00, 
0x00, 0x00, 
0x00, 0x00, 
0x00, 0x00, 
};
