#define psf_width 15
#define psf_height 30
static unsigned char psf_bits[] = {
0x00, 0x00, 
0x00, 0x00, 
0x00, 0x00, 
0x00, 0x00, 
0x00, 0x00, 
0x00, 0x00, 
0x00, 0x00, 
0x00, 0x00, 
0x00, 0x00, 
0x00, 0x00, 
0x00, 0x00, 
0x1c, 0x1c, 
0x1c, 0x1c, 
0x0e, 0x38, 
0x0e, 0x38, 
0xce, 0x39, 
0xce, 0x39, 
0xce, 0x39, 
0xce, 0x39, 
0xce, 0x39, 
0xce, 0x39, 
0xce, 0x39, 
0xee, 0x3b, 
0xfc, 0x1f, 
0x78, 0x0f, 
0x00, 0x00, 
0x00, 0x00, 
0x00, 0x00, 
0x00, 0x00, 
0x00, 0x00, 
};
