#define psf_width 15
#define psf_height 30
static unsigned char psf_bits[] = {
0x00, 0x00, 
0x00, 0x00, 
0x00, 0x00, 
0x00, 0x00, 
0x00, 0x00, 
0x00, 0x00, 
0x00, 0x00, 
0x00, 0x00, 
0x00, 0x00, 
0x00, 0x00, 
0x00, 0x00, 
0x3e, 0x30, 
0x7e, 0x38, 
0xe0, 0x1c, 
0xe0, 0x0e, 
0xc0, 0x07, 
0xc0, 0x03, 
0xc0, 0x01, 
0xc0, 0x01, 
0xe0, 0x01, 
0xf0, 0x01, 
0xb8, 0x03, 
0x9c, 0x03, 
0x0e, 0x3f, 
0x06, 0x3e, 
0x00, 0x00, 
0x00, 0x00, 
0x00, 0x00, 
0x00, 0x00, 
0x00, 0x00, 
};
