#define psf_width 15
#define psf_height 30
static unsigned char psf_bits[] = {
0x00, 0x00, 
0x00, 0x00, 
0x00, 0x00, 
0x00, 0x00, 
0x00, 0x00, 
0xf8, 0x00, 
0xfc, 0x00, 
0xde, 0x00, 
0xce, 0x00, 
0xce, 0x00, 
0xce, 0x00, 
0xce, 0x00, 
0xce, 0x0f, 
0xce, 0x1f, 
0xce, 0x3c, 
0xce, 0x38, 
0xce, 0x38, 
0xce, 0x38, 
0xce, 0x38, 
0xce, 0x38, 
0xce, 0x38, 
0xce, 0x38, 
0xce, 0x3c, 
0xcf, 0x1f, 
0xc7, 0x0f, 
0x00, 0x00, 
0x00, 0x00, 
0x00, 0x00, 
0x00, 0x00, 
0x00, 0x00, 
};
