#define psf_width 15
#define psf_height 30
static unsigned char psf_bits[] = {
0x00, 0x00, 
0x38, 0x0e, 
0x38, 0x0e, 
0xf0, 0x07, 
0xe0, 0x03, 
0x00, 0x00, 
0x0e, 0x38, 
0x0e, 0x38, 
0x0e, 0x38, 
0x0e, 0x38, 
0x0e, 0x38, 
0x0e, 0x38, 
0x0e, 0x3c, 
0x0e, 0x3e, 
0x0e, 0x3f, 
0x8e, 0x3b, 
0xce, 0x39, 
0xee, 0x38, 
0x7e, 0x38, 
0x3e, 0x38, 
0x1e, 0x38, 
0x0e, 0x38, 
0x0e, 0x38, 
0x0e, 0x38, 
0x0e, 0x38, 
0x0e, 0x38, 
0x00, 0x00, 
0x00, 0x00, 
0x00, 0x00, 
0x00, 0x00, 
};
