#define psf_width 15
#define psf_height 30
static unsigned char psf_bits[] = {
0x00, 0x00, 
0x00, 0x00, 
0x00, 0x00, 
0x00, 0x00, 
0x00, 0x00, 
0x0e, 0x1c, 
0x0e, 0x1c, 
0x0e, 0x1c, 
0x0e, 0x1c, 
0x0e, 0x1c, 
0x0e, 0x1c, 
0x0e, 0x1c, 
0x0e, 0x1c, 
0x0e, 0x1c, 
0x0e, 0x1c, 
0x0e, 0x1c, 
0x0e, 0x1c, 
0x0e, 0x1c, 
0x0e, 0x1c, 
0x0e, 0x1c, 
0x0e, 0x1c, 
0x0e, 0x1c, 
0x1e, 0x3c, 
0xfc, 0x7f, 
0xf8, 0x7f, 
0x00, 0x70, 
0x00, 0x70, 
0x00, 0x70, 
0x00, 0x70, 
0x00, 0x00, 
};
