#define psf_width 15
#define psf_height 30
static unsigned char psf_bits[] = {
0x00, 0x00, 
0x00, 0x00, 
0x00, 0x00, 
0x00, 0x00, 
0x00, 0x00, 
0x0e, 0x70, 
0x0e, 0x70, 
0x0e, 0x70, 
0x0e, 0x70, 
0x0e, 0x70, 
0x0e, 0x70, 
0xfe, 0x70, 
0xfe, 0x71, 
0xce, 0x73, 
0x8e, 0x73, 
0x8e, 0x73, 
0x8e, 0x73, 
0x8e, 0x73, 
0x8e, 0x73, 
0x8e, 0x73, 
0x8e, 0x73, 
0x8e, 0x73, 
0xce, 0x73, 
0xfe, 0x71, 
0xfe, 0x70, 
0x00, 0x00, 
0x00, 0x00, 
0x00, 0x00, 
0x00, 0x00, 
0x00, 0x00, 
};
