#define psf_width 15
#define psf_height 30
static unsigned char psf_bits[] = {
0x00, 0x00, 
0x00, 0x00, 
0x00, 0x00, 
0x00, 0x00, 
0x00, 0x00, 
0x00, 0x00, 
0x00, 0x00, 
0x00, 0x00, 
0x00, 0x00, 
0x00, 0x00, 
0x00, 0x00, 
0x06, 0x60, 
0x0e, 0x70, 
0x1e, 0x78, 
0x3e, 0x7c, 
0x7e, 0x7e, 
0xee, 0x77, 
0xce, 0x73, 
0x8e, 0x71, 
0x0e, 0x70, 
0x0e, 0x70, 
0x0e, 0x70, 
0x0e, 0x70, 
0x0e, 0x70, 
0x0e, 0x70, 
0x00, 0x00, 
0x00, 0x00, 
0x00, 0x00, 
0x00, 0x00, 
0x00, 0x00, 
};
