#define psf_width 15
#define psf_height 30
static unsigned char psf_bits[] = {
0x00, 0x00, 
0x00, 0x00, 
0x00, 0x00, 
0x00, 0x00, 
0x00, 0x00, 
0x00, 0x00, 
0x00, 0x00, 
0x00, 0x00, 
0x00, 0x00, 
0x00, 0x00, 
0x00, 0x00, 
0xce, 0x1c, 
0xce, 0x1c, 
0xce, 0x1c, 
0xce, 0x1c, 
0xce, 0x1c, 
0xce, 0x1c, 
0xce, 0x1c, 
0xce, 0x1c, 
0xce, 0x1c, 
0xce, 0x1c, 
0xce, 0x1c, 
0xde, 0x1c, 
0xfc, 0x3f, 
0xf8, 0x7f, 
0x00, 0x70, 
0x00, 0x70, 
0x00, 0x70, 
0x00, 0x70, 
0x00, 0x00, 
};
