#define psf_width 15
#define psf_height 30
static unsigned char psf_bits[] = {
0x00, 0x00, 
0x00, 0x00, 
0x00, 0x00, 
0x00, 0x00, 
0x00, 0x00, 
0x00, 0x00, 
0x00, 0x00, 
0x00, 0x00, 
0x00, 0x00, 
0x00, 0x00, 
0x00, 0x00, 
0x1c, 0x00, 
0x1c, 0x00, 
0x1c, 0x00, 
0x1c, 0x00, 
0xfc, 0x07, 
0xfc, 0x0f, 
0x1c, 0x1e, 
0x1c, 0x1c, 
0x1c, 0x1c, 
0x1c, 0x1c, 
0x1c, 0x1c, 
0x1c, 0x1e, 
0xfc, 0x0f, 
0xfc, 0x07, 
0x00, 0x00, 
0x00, 0x00, 
0x00, 0x00, 
0x00, 0x00, 
0x00, 0x00, 
};
