#define psf_width 15
#define psf_height 30
static unsigned char psf_bits[] = {
0x00, 0x00, 
0x00, 0x00, 
0x00, 0x00, 
0x00, 0x00, 
0x00, 0x00, 
0x00, 0x00, 
0x00, 0x00, 
0x00, 0x00, 
0x00, 0x00, 
0x00, 0x00, 
0x00, 0x00, 
0xe3, 0x00, 
0xe3, 0x00, 
0xe3, 0x00, 
0xe3, 0x00, 
0xe3, 0x0f, 
0xe3, 0x1f, 
0xff, 0x3c, 
0xff, 0x38, 
0xe3, 0x38, 
0xe3, 0x38, 
0xe3, 0x38, 
0xe3, 0x3c, 
0xe3, 0x1f, 
0xe3, 0x0f, 
0x00, 0x00, 
0x00, 0x00, 
0x00, 0x00, 
0x00, 0x00, 
0x00, 0x00, 
};
