#define psf_width 15
#define psf_height 30
static unsigned char psf_bits[] = {
0x00, 0x00, 
0x00, 0x00, 
0x00, 0x00, 
0x00, 0x00, 
0x00, 0x00, 
0x0e, 0x00, 
0x0e, 0x00, 
0xff, 0x00, 
0xff, 0x00, 
0x0e, 0x00, 
0x0e, 0x00, 
0xfe, 0x07, 
0xfe, 0x0f, 
0x0e, 0x1e, 
0x0e, 0x1c, 
0x0e, 0x1c, 
0x0e, 0x1c, 
0x0e, 0x1c, 
0x0e, 0x1c, 
0x0e, 0x1c, 
0x0e, 0x1c, 
0x0e, 0x1c, 
0x0e, 0x1e, 
0xfe, 0x0f, 
0xfe, 0x07, 
0x00, 0x00, 
0x00, 0x00, 
0x00, 0x00, 
0x00, 0x00, 
0x00, 0x00, 
};
