#define psf_width 15
#define psf_height 30
static unsigned char psf_bits[] = {
0x00, 0x00, 
0x00, 0x00, 
0x00, 0x00, 
0x00, 0x00, 
0x00, 0x00, 
0x38, 0x00, 
0x38, 0x00, 
0x38, 0x00, 
0x38, 0x00, 
0xfe, 0x03, 
0xfe, 0x03, 
0x38, 0x00, 
0x38, 0x00, 
0x38, 0x00, 
0x38, 0x00, 
0xf8, 0x0f, 
0xf8, 0x1f, 
0x38, 0x3c, 
0x38, 0x38, 
0x38, 0x38, 
0x38, 0x38, 
0x38, 0x38, 
0x38, 0x3c, 
0xf8, 0x1f, 
0xf8, 0x0f, 
0x00, 0x00, 
0x00, 0x00, 
0x00, 0x00, 
0x00, 0x00, 
0x00, 0x00, 
};
