#define psf_width 15
#define psf_height 30
static unsigned char psf_bits[] = {
0x00, 0x00, 
0x00, 0x00, 
0x00, 0x00, 
0x00, 0x00, 
0x00, 0x00, 
0x00, 0x00, 
0x00, 0x00, 
0x00, 0x00, 
0x00, 0x00, 
0x00, 0x00, 
0x00, 0x00, 
0xfe, 0x3f, 
0xfe, 0x3f, 
0x0e, 0x00, 
0x0e, 0x00, 
0x0e, 0x00, 
0x0e, 0x00, 
0x0e, 0x00, 
0xfe, 0x03, 
0xfe, 0x07, 
0x0e, 0x0f, 
0x0e, 0x0e, 
0x0e, 0x0e, 
0x0e, 0x0e, 
0x0e, 0x0e, 
0x00, 0x0e, 
0x00, 0x0e, 
0x00, 0x07, 
0x80, 0x03, 
0x00, 0x00, 
};
