#define psf_width 15
#define psf_height 30
static unsigned char psf_bits[] = {
0x00, 0x00, 
0x00, 0x00, 
0x00, 0x00, 
0x00, 0x00, 
0x00, 0x00, 
0x00, 0x00, 
0x00, 0x00, 
0x00, 0x00, 
0x00, 0x00, 
0x00, 0x00, 
0x00, 0x00, 
0x0e, 0x38, 
0x0e, 0x38, 
0x0e, 0x38, 
0xce, 0x39, 
0xce, 0x39, 
0xde, 0x39, 
0xfc, 0x3f, 
0xf8, 0x3f, 
0xc0, 0x39, 
0xc0, 0x39, 
0xc0, 0x39, 
0x00, 0x38, 
0x00, 0x38, 
0x00, 0x38, 
0x00, 0x00, 
0x00, 0x00, 
0x00, 0x00, 
0x00, 0x00, 
0x00, 0x00, 
};
