#define psf_width 15
#define psf_height 30
static unsigned char psf_bits[] = {
0x00, 0x00, 
0x38, 0x0e, 
0x38, 0x0e, 
0x38, 0x0e, 
0x38, 0x0e, 
0x00, 0x00, 
0xf8, 0x0f, 
0xfc, 0x1f, 
0x1e, 0x3c, 
0x0e, 0x38, 
0x0e, 0x38, 
0x0e, 0x38, 
0x0e, 0x38, 
0x0e, 0x38, 
0x0e, 0x38, 
0xfe, 0x3f, 
0xfe, 0x3f, 
0x0e, 0x38, 
0x0e, 0x38, 
0x0e, 0x38, 
0x0e, 0x38, 
0x0e, 0x38, 
0x0e, 0x38, 
0x1e, 0x3c, 
0xfc, 0x1f, 
0xf8, 0x0f, 
0x00, 0x00, 
0x00, 0x00, 
0x00, 0x00, 
0x00, 0x00, 
};
