#define psf_width 15
#define psf_height 30
static unsigned char psf_bits[] = {
0x00, 0x00, 
0x00, 0x00, 
0x00, 0x00, 
0x00, 0x00, 
0x00, 0x00, 
0xfc, 0x01, 
0xfc, 0x03, 
0x80, 0x07, 
0x00, 0x07, 
0x00, 0x07, 
0x00, 0x07, 
0x00, 0x07, 
0x00, 0x07, 
0x00, 0x07, 
0x00, 0x07, 
0x00, 0x07, 
0x00, 0x07, 
0x80, 0x0f, 
0xc0, 0x0f, 
0xe0, 0x1d, 
0xf0, 0x1c, 
0x78, 0x38, 
0x3c, 0x38, 
0x1e, 0x70, 
0x0f, 0x70, 
0x00, 0x00, 
0x00, 0x00, 
0x00, 0x00, 
0x00, 0x00, 
0x00, 0x00, 
};
