#define psf_width 15
#define psf_height 30
static unsigned char psf_bits[] = {
0x00, 0x00, 
0x0e, 0x00, 
0x0e, 0x00, 
0x0e, 0x00, 
0x0e, 0x00, 
0xfe, 0x3f, 
0xfe, 0x3f, 
0x00, 0x38, 
0x00, 0x38, 
0x00, 0x38, 
0x00, 0x38, 
0x00, 0x38, 
0x00, 0x38, 
0x00, 0x3c, 
0x00, 0x1e, 
0x00, 0x0f, 
0x80, 0x07, 
0xc0, 0x03, 
0xe0, 0x01, 
0xe0, 0x00, 
0xe0, 0x00, 
0xe0, 0x00, 
0xe0, 0x00, 
0xe0, 0x00, 
0xe0, 0x00, 
0x00, 0x00, 
0x00, 0x00, 
0x00, 0x00, 
0x00, 0x00, 
0x00, 0x00, 
};
