#define psf_width 15
#define psf_height 30
static unsigned char psf_bits[] = {
0x00, 0x00, 
0x00, 0x00, 
0x00, 0x00, 
0x00, 0x00, 
0x00, 0x00, 
0xfe, 0x3f, 
0xfe, 0x3f, 
0x00, 0x38, 
0x00, 0x38, 
0x00, 0x38, 
0x00, 0x38, 
0x0e, 0x38, 
0x0e, 0x38, 
0x0e, 0x38, 
0x0e, 0x1c, 
0x0e, 0x0e, 
0x0e, 0x07, 
0x8e, 0x03, 
0xce, 0x01, 
0xce, 0x01, 
0xce, 0x01, 
0xce, 0x01, 
0xce, 0x01, 
0xce, 0x01, 
0xce, 0x01, 
0x0e, 0x00, 
0x0e, 0x00, 
0x0e, 0x00, 
0x0e, 0x00, 
0x00, 0x00, 
};
