#define psf_width 15
#define psf_height 30
static unsigned char psf_bits[] = {
0x00, 0x00, 
0x00, 0x00, 
0x00, 0x00, 
0x00, 0x00, 
0x00, 0x00, 
0xc0, 0x01, 
0xc0, 0x01, 
0xc0, 0x01, 
0xc0, 0x01, 
0x00, 0x00, 
0x00, 0x00, 
0xfe, 0x0f, 
0xfe, 0x1f, 
0xce, 0x3d, 
0xce, 0x39, 
0xce, 0x39, 
0xce, 0x39, 
0xce, 0x39, 
0xce, 0x39, 
0xce, 0x39, 
0xce, 0x39, 
0xce, 0x39, 
0xce, 0x39, 
0xce, 0x39, 
0xce, 0x39, 
0x00, 0x00, 
0x00, 0x00, 
0x00, 0x00, 
0x00, 0x00, 
0x00, 0x00, 
};
