#define psf_width 15
#define psf_height 30
static unsigned char psf_bits[] = {
0x00, 0x00, 
0x00, 0x00, 
0x00, 0x00, 
0x78, 0x1e, 
0x78, 0x1e, 
0x78, 0x1e, 
0x38, 0x0e, 
0x38, 0x0e, 
0x38, 0x0e, 
0x38, 0x0e, 
0x38, 0x0e, 
0x00, 0x00, 
0x00, 0x00, 
0x00, 0x00, 
0x00, 0x00, 
0x00, 0x00, 
0x00, 0x00, 
0x00, 0x00, 
0x00, 0x00, 
0x00, 0x00, 
0x00, 0x00, 
0x00, 0x00, 
0x00, 0x00, 
0x00, 0x00, 
0x00, 0x00, 
0x00, 0x00, 
0x00, 0x00, 
0x00, 0x00, 
0x00, 0x00, 
0x00, 0x00, 
};
