#define psf_width 15
#define psf_height 30
static unsigned char psf_bits[] = {
0x00, 0x00, 
0x00, 0x00, 
0x00, 0x00, 
0x00, 0x00, 
0x00, 0x00, 
0x00, 0x00, 
0x00, 0x00, 
0x00, 0x00, 
0x00, 0x00, 
0x00, 0x00, 
0x00, 0x00, 
0x00, 0x00, 
0x00, 0x00, 
0x00, 0x00, 
0x00, 0x00, 
0x00, 0x00, 
0x00, 0x00, 
0xe0, 0x03, 
0xf0, 0x07, 
0x38, 0x0e, 
0x38, 0x0e, 
0x38, 0x0e, 
0x38, 0x0e, 
0x38, 0x0e, 
0x38, 0x0e, 
0x38, 0x0e, 
0xf0, 0x07, 
0xe0, 0x03, 
0x00, 0x00, 
0x00, 0x00, 
};
