#define psf_width 15
#define psf_height 30
static unsigned char psf_bits[] = {
0x00, 0x00, 
0x00, 0x00, 
0x00, 0x00, 
0x00, 0x00, 
0x00, 0x00, 
0xfe, 0x61, 
0xfe, 0x63, 
0x06, 0x67, 
0x06, 0x66, 
0x06, 0x66, 
0x06, 0x66, 
0x66, 0x66, 
0x66, 0x66, 
0x66, 0x66, 
0x66, 0x66, 
0x66, 0x66, 
0x66, 0x66, 
0x66, 0x66, 
0x66, 0x66, 
0x66, 0x60, 
0x66, 0x60, 
0x66, 0x60, 
0x66, 0x70, 
0xe6, 0x3f, 
0xe6, 0x1f, 
0x00, 0x00, 
0x00, 0x00, 
0x00, 0x00, 
0x00, 0x00, 
0x00, 0x00, 
};
