#define psf_width 15
#define psf_height 30
static unsigned char psf_bits[] = {
0x00, 0x00, 
0x00, 0x00, 
0x00, 0x00, 
0x00, 0x00, 
0x00, 0x00, 
0xf8, 0x07, 
0xfc, 0x0f, 
0x3e, 0x1c, 
0x36, 0x18, 
0x36, 0x18, 
0x36, 0x18, 
0x36, 0x18, 
0x36, 0x18, 
0x36, 0x18, 
0x36, 0x18, 
0x36, 0x18, 
0x36, 0x18, 
0x36, 0x18, 
0x36, 0x18, 
0x36, 0x18, 
0x36, 0x18, 
0xb6, 0x19, 
0xbe, 0x1f, 
0xfc, 0x0f, 
0xf8, 0x0f, 
0x00, 0x1c, 
0x00, 0x38, 
0x00, 0x00, 
0x00, 0x00, 
0x00, 0x00, 
};
