#define psf_width 15
#define psf_height 30
static unsigned char psf_bits[] = {
0x00, 0x00, 
0x00, 0x00, 
0x00, 0x00, 
0x00, 0x00, 
0x00, 0x00, 
0xfe, 0x07, 
0xfe, 0x0f, 
0x36, 0x1c, 
0x36, 0x18, 
0x36, 0x18, 
0x36, 0x18, 
0x36, 0x18, 
0x36, 0x18, 
0x36, 0x18, 
0x36, 0x1c, 
0xf6, 0x0f, 
0xf6, 0x07, 
0xb6, 0x01, 
0x76, 0x03, 
0xf6, 0x06, 
0xb6, 0x0d, 
0x36, 0x1b, 
0x36, 0x36, 
0x36, 0x2c, 
0x3e, 0x38, 
0x00, 0x00, 
0x00, 0x00, 
0x00, 0x00, 
0x00, 0x00, 
0x00, 0x00, 
};
