#define psf_width 15
#define psf_height 30
static unsigned char psf_bits[] = {
0x00, 0x00, 
0x00, 0x00, 
0x00, 0x00, 
0x00, 0x00, 
0x00, 0x00, 
0xc0, 0x01, 
0xe0, 0x03, 
0xf0, 0x07, 
0xf8, 0x0f, 
0xdc, 0x1d, 
0xce, 0x39, 
0xc6, 0x31, 
0xc0, 0x01, 
0xc0, 0x01, 
0xc0, 0x01, 
0xc0, 0x01, 
0xc0, 0x01, 
0xc0, 0x01, 
0xc0, 0x01, 
0xc0, 0x01, 
0xc0, 0x01, 
0xc0, 0x01, 
0xc0, 0x01, 
0xc0, 0x01, 
0xc0, 0x01, 
0x00, 0x00, 
0x00, 0x00, 
0x00, 0x00, 
0x00, 0x00, 
0x00, 0x00, 
};
