#define psf_width 15
#define psf_height 30
static unsigned char psf_bits[] = {
0x00, 0x00, 
0x00, 0x00, 
0x00, 0x00, 
0x00, 0x00, 
0x00, 0x00, 
0x00, 0x00, 
0x00, 0x00, 
0x00, 0x00, 
0xfe, 0x00, 
0xfe, 0x00, 
0xf8, 0x00, 
0xfc, 0x18, 
0xdc, 0x18, 
0xce, 0x38, 
0x0e, 0x38, 
0x0e, 0x38, 
0x0e, 0x38, 
0x0e, 0x38, 
0x1c, 0x1c, 
0x3c, 0x1e, 
0xf8, 0x0f, 
0xe0, 0x03, 
0x00, 0x00, 
0x00, 0x00, 
0x00, 0x00, 
0x00, 0x00, 
0x00, 0x00, 
0x00, 0x00, 
0x00, 0x00, 
0x00, 0x00, 
};
