#define psf_width 15
#define psf_height 30
static unsigned char psf_bits[] = {
0x00, 0x00, 
0x00, 0x00, 
0x00, 0x00, 
0x00, 0x00, 
0x00, 0x00, 
0x00, 0x00, 
0x00, 0x00, 
0x00, 0x00, 
0x00, 0x00, 
0x60, 0x00, 
0x70, 0x00, 
0xf8, 0x3f, 
0xfc, 0x3f, 
0xfe, 0x3f, 
0x1f, 0x00, 
0x1f, 0x00, 
0xfe, 0x3f, 
0xfc, 0x3f, 
0xf8, 0x3f, 
0x70, 0x00, 
0x60, 0x00, 
0x00, 0x00, 
0x00, 0x00, 
0x00, 0x00, 
0x00, 0x00, 
0x00, 0x00, 
0x00, 0x00, 
0x00, 0x00, 
0x00, 0x00, 
0x00, 0x00, 
};
