#define psf_width 15
#define psf_height 30
static unsigned char psf_bits[] = {
0x00, 0x00, 
0x00, 0x00, 
0x00, 0x00, 
0x00, 0x00, 
0x00, 0x00, 
0x00, 0x00, 
0x00, 0x00, 
0x00, 0x00, 
0x00, 0x00, 
0x80, 0x01, 
0x80, 0x03, 
0xff, 0x07, 
0xff, 0x0f, 
0xff, 0x1f, 
0x00, 0x3e, 
0x00, 0x3e, 
0xff, 0x1f, 
0xff, 0x0f, 
0xff, 0x07, 
0x80, 0x03, 
0x80, 0x01, 
0x00, 0x00, 
0x00, 0x00, 
0x00, 0x00, 
0x00, 0x00, 
0x00, 0x00, 
0x00, 0x00, 
0x00, 0x00, 
0x00, 0x00, 
0x00, 0x00, 
};
