#define psf_width 15
#define psf_height 30
static unsigned char psf_bits[] = {
0x00, 0x00, 
0x00, 0x00, 
0x00, 0x00, 
0x00, 0x00, 
0x00, 0x00, 
0x00, 0x38, 
0x00, 0x38, 
0x00, 0x1c, 
0x00, 0x1c, 
0xf0, 0x0f, 
0xf8, 0x1f, 
0x1c, 0x3f, 
0x1c, 0x3f, 
0x9c, 0x3b, 
0x9c, 0x3b, 
0xdc, 0x39, 
0xdc, 0x39, 
0xfc, 0x38, 
0xfc, 0x38, 
0xf8, 0x1f, 
0xf0, 0x0f, 
0x38, 0x00, 
0x38, 0x00, 
0x1c, 0x00, 
0x1c, 0x00, 
0x00, 0x00, 
0x00, 0x00, 
0x00, 0x00, 
0x00, 0x00, 
0x00, 0x00, 
};
