#define psf_width 15
#define psf_height 30
static unsigned char psf_bits[] = {
0x00, 0x00, 
0x00, 0x00, 
0x00, 0x00, 
0x00, 0x00, 
0x00, 0x00, 
0xc0, 0x3f, 
0xf0, 0x3f, 
0x78, 0x00, 
0x1c, 0x00, 
0x1c, 0x00, 
0x0e, 0x00, 
0x0e, 0x00, 
0x0e, 0x00, 
0x0e, 0x00, 
0xfe, 0x3f, 
0xfe, 0x3f, 
0x0e, 0x00, 
0x0e, 0x00, 
0x0e, 0x00, 
0x0e, 0x00, 
0x1c, 0x00, 
0x1c, 0x00, 
0x78, 0x00, 
0xf0, 0x3f, 
0xc0, 0x3f, 
0x00, 0x00, 
0x00, 0x00, 
0x00, 0x00, 
0x00, 0x00, 
0x00, 0x00, 
};
