#define psf_width 15
#define psf_height 30
static unsigned char psf_bits[] = {
0x00, 0x00, 
0x00, 0x00, 
0x00, 0x7c, 
0x00, 0x7c, 
0x00, 0x1c, 
0x00, 0x1c, 
0x00, 0x1c, 
0x00, 0x1c, 
0x00, 0x1c, 
0x00, 0x1c, 
0x00, 0x1c, 
0x00, 0x1c, 
0x00, 0x1c, 
0x00, 0x1c, 
0x0e, 0x1c, 
0x0e, 0x1c, 
0x0e, 0x1c, 
0x1e, 0x1c, 
0x3c, 0x1c, 
0x78, 0x1c, 
0xf0, 0x1c, 
0xe0, 0x1d, 
0xc0, 0x1f, 
0x80, 0x1f, 
0x00, 0x1f, 
0x00, 0x00, 
0x00, 0x00, 
0x00, 0x00, 
0x00, 0x00, 
0x00, 0x00, 
};
