#define psf_width 15
#define psf_height 30
static unsigned char psf_bits[] = {
0xc0, 0x01, 
0xc0, 0x01, 
0xc0, 0x01, 
0xc0, 0x01, 
0xc0, 0x01, 
0xc0, 0x01, 
0xc0, 0x01, 
0xc0, 0x01, 
0xc0, 0x01, 
0xc0, 0x01, 
0xc0, 0x01, 
0xc0, 0x01, 
0xc0, 0x01, 
0xc0, 0x01, 
0xc0, 0x01, 
0xc0, 0x01, 
0xc0, 0x01, 
0xc0, 0x01, 
0xc0, 0x01, 
0xc0, 0x01, 
0xc0, 0x01, 
0xce, 0x01, 
0xce, 0x01, 
0xfe, 0x01, 
0xfc, 0x00, 
0x00, 0x00, 
0x00, 0x00, 
0x00, 0x00, 
0x00, 0x00, 
0x00, 0x00, 
};
