#define psf_width 15
#define psf_height 30
static unsigned char psf_bits[] = {
0x80, 0x03, 
0x80, 0x03, 
0x80, 0x03, 
0x80, 0x03, 
0x80, 0x03, 
0x80, 0x03, 
0x80, 0x03, 
0x80, 0x03, 
0x80, 0x03, 
0x80, 0x03, 
0x80, 0x03, 
0x80, 0x03, 
0x80, 0x03, 
0x80, 0x03, 
0x80, 0x03, 
0x80, 0x03, 
0x80, 0x03, 
0x80, 0x03, 
0x80, 0x03, 
0x80, 0x03, 
0x80, 0x03, 
0x80, 0x03, 
0x80, 0x03, 
0x80, 0x03, 
0x80, 0x03, 
0x80, 0x03, 
0xc0, 0x01, 
0xe0, 0x01, 
0xff, 0x00, 
0x3f, 0x00, 
};
