#define psf_width 15
#define psf_height 30
static unsigned char psf_bits[] = {
0x00, 0x00, 
0x00, 0x00, 
0x00, 0x00, 
0x00, 0x00, 
0x00, 0x00, 
0x8e, 0x03, 
0x8e, 0x03, 
0x8e, 0x03, 
0x8e, 0x03, 
0x8e, 0x03, 
0x8e, 0x03, 
0xdc, 0x01, 
0xf8, 0x00, 
0x70, 0x00, 
0x00, 0x00, 
0x00, 0x00, 
0xc0, 0x7f, 
0xc0, 0x7f, 
0x00, 0x0e, 
0x00, 0x0e, 
0x00, 0x0e, 
0x00, 0x0e, 
0x00, 0x0e, 
0x00, 0x0e, 
0x00, 0x0e, 
0x00, 0x00, 
0x00, 0x00, 
0x00, 0x00, 
0x00, 0x00, 
0x00, 0x00, 
};
