#define psf_width 15
#define psf_height 30
static unsigned char psf_bits[] = {
0xe0, 0x03, 
0xe0, 0x03, 
0xe0, 0x03, 
0xe0, 0x03, 
0xe0, 0x03, 
0xe0, 0x03, 
0xe0, 0x03, 
0xe0, 0x03, 
0xe0, 0x03, 
0xe0, 0x03, 
0xe0, 0x03, 
0xe0, 0x03, 
0xe0, 0x7f, 
0xff, 0x7f, 
0xff, 0x7f, 
0xff, 0x7f, 
0xe0, 0x7f, 
0xe0, 0x03, 
0xe0, 0x03, 
0xe0, 0x03, 
0xe0, 0x03, 
0xe0, 0x03, 
0xe0, 0x03, 
0xe0, 0x03, 
0xe0, 0x03, 
0xe0, 0x03, 
0xe0, 0x03, 
0xe0, 0x03, 
0xe0, 0x03, 
0xe0, 0x03, 
};
