#define psf_width 15
#define psf_height 30
static unsigned char psf_bits[] = {
0x70, 0x0e, 
0x70, 0x0e, 
0x70, 0x0e, 
0x70, 0x0e, 
0x70, 0x0e, 
0x70, 0x0e, 
0x70, 0x0e, 
0x70, 0x0e, 
0x70, 0x0e, 
0x70, 0x0e, 
0x70, 0x0e, 
0x70, 0x0e, 
0x70, 0x0e, 
0xf0, 0x7f, 
0xf0, 0x7f, 
0xf0, 0x7f, 
0x00, 0x00, 
0x00, 0x00, 
0x00, 0x00, 
0x00, 0x00, 
0x00, 0x00, 
0x00, 0x00, 
0x00, 0x00, 
0x00, 0x00, 
0x00, 0x00, 
0x00, 0x00, 
0x00, 0x00, 
0x00, 0x00, 
0x00, 0x00, 
0x00, 0x00, 
};
