#define psf_width 15
#define psf_height 30
static unsigned char psf_bits[] = {
0xc0, 0x01, 
0xc0, 0x01, 
0xc0, 0x01, 
0xc0, 0x01, 
0xc0, 0x01, 
0xc0, 0x01, 
0xc0, 0x01, 
0xc0, 0x01, 
0xc0, 0x01, 
0xc0, 0x01, 
0xe0, 0x01, 
0xe0, 0x00, 
0xf8, 0x00, 
0x7f, 0x00, 
0x3f, 0x00, 
0x0f, 0x00, 
0x00, 0x00, 
0x00, 0x00, 
0x00, 0x00, 
0x00, 0x00, 
0x00, 0x00, 
0x00, 0x00, 
0x00, 0x00, 
0x00, 0x00, 
0x00, 0x00, 
0x00, 0x00, 
0x00, 0x00, 
0x00, 0x00, 
0x00, 0x00, 
0x00, 0x00, 
};
