#define psf_width 15
#define psf_height 30
static unsigned char psf_bits[] = {
0x55, 0x55, 
0x00, 0x00, 
0x55, 0x55, 
0x00, 0x00, 
0x55, 0x55, 
0x00, 0x00, 
0x55, 0x55, 
0x00, 0x00, 
0x55, 0x55, 
0x00, 0x00, 
0x55, 0x55, 
0x00, 0x00, 
0x55, 0x55, 
0x00, 0x00, 
0x55, 0x55, 
0x00, 0x00, 
0x55, 0x55, 
0x00, 0x00, 
0x55, 0x55, 
0x00, 0x00, 
0x55, 0x55, 
0x00, 0x00, 
0x55, 0x55, 
0x00, 0x00, 
0x55, 0x55, 
0x00, 0x00, 
0x55, 0x55, 
0x00, 0x00, 
0x55, 0x55, 
0x00, 0x00, 
};
