#define psf_width 15
#define psf_height 30
static unsigned char psf_bits[] = {
0x00, 0x00, 
0x00, 0x00, 
0x00, 0x00, 
0x00, 0x00, 
0x00, 0x00, 
0x00, 0x00, 
0x00, 0x00, 
0x00, 0x60, 
0x00, 0x78, 
0x00, 0x7e, 
0x80, 0x7f, 
0xe0, 0x7f, 
0xf8, 0x7f, 
0xfe, 0x7f, 
0xff, 0x7f, 
0xff, 0x7f, 
0xfe, 0x7f, 
0xf8, 0x7f, 
0xe0, 0x7f, 
0x80, 0x7f, 
0x00, 0x7e, 
0x00, 0x78, 
0x00, 0x60, 
0x00, 0x00, 
0x00, 0x00, 
0x00, 0x00, 
0x00, 0x00, 
0x00, 0x00, 
0x00, 0x00, 
0x00, 0x00, 
};
