#define psf_width 15
#define psf_height 30
static unsigned char psf_bits[] = {
0x00, 0x00, 
0x00, 0x00, 
0x00, 0x00, 
0x00, 0x00, 
0x00, 0x00, 
0xfc, 0x0f, 
0xfe, 0x1f, 
0x0f, 0x3c, 
0x07, 0x38, 
0x07, 0x38, 
0x07, 0x38, 
0x37, 0x3b, 
0x37, 0x3b, 
0x07, 0x38, 
0x07, 0x38, 
0x07, 0x38, 
0x07, 0x38, 
0xf7, 0x3b, 
0xe7, 0x39, 
0x07, 0x38, 
0x07, 0x38, 
0x07, 0x38, 
0x0f, 0x3c, 
0xfe, 0x1f, 
0xfc, 0x0f, 
0x00, 0x00, 
0x00, 0x00, 
0x00, 0x00, 
0x00, 0x00, 
0x00, 0x00, 
};
