#define psf_width 15
#define psf_height 30
static unsigned char psf_bits[] = {
0x00, 0x00, 
0x00, 0x00, 
0x00, 0x00, 
0x00, 0x00, 
0x00, 0x00, 
0xe0, 0x01, 
0xf0, 0x03, 
0xf0, 0x03, 
0xf0, 0x03, 
0xf0, 0x03, 
0xf0, 0x03, 
0xe0, 0x01, 
0xc0, 0x00, 
0xdc, 0x0e, 
0xfe, 0x1f, 
0xff, 0x3f, 
0xff, 0x3f, 
0xff, 0x3f, 
0xff, 0x3f, 
0xfe, 0x1f, 
0xdc, 0x0e, 
0xc0, 0x00, 
0xc0, 0x00, 
0xf0, 0x03, 
0xf0, 0x03, 
0x00, 0x00, 
0x00, 0x00, 
0x00, 0x00, 
0x00, 0x00, 
0x00, 0x00, 
};
