#define psf_width 15
#define psf_height 30
static unsigned char psf_bits[] = {
0x00, 0x00, 
0x00, 0x00, 
0x00, 0x00, 
0x00, 0x00, 
0x00, 0x00, 
0x00, 0x70, 
0x00, 0x70, 
0x00, 0x38, 
0x00, 0x38, 
0x00, 0x1c, 
0x00, 0x1c, 
0x00, 0x0e, 
0x00, 0x0e, 
0x03, 0x07, 
0x03, 0x07, 
0x87, 0x03, 
0x87, 0x03, 
0xce, 0x01, 
0xce, 0x01, 
0xfc, 0x00, 
0xfc, 0x00, 
0x78, 0x00, 
0x78, 0x00, 
0x30, 0x00, 
0x30, 0x00, 
0x00, 0x00, 
0x00, 0x00, 
0x00, 0x00, 
0x00, 0x00, 
0x00, 0x00, 
};
