#define psf_width 15
#define psf_height 30
static unsigned char psf_bits[] = {
0x00, 0x00, 
0x00, 0x00, 
0x00, 0x00, 
0x00, 0x00, 
0x00, 0x00, 
0x00, 0x3c, 
0x00, 0x3c, 
0x1e, 0x1e, 
0x3c, 0x1e, 
0x78, 0x0f, 
0xf0, 0x0f, 
0xe0, 0x07, 
0xc0, 0x07, 
0xc0, 0x07, 
0xc0, 0x0f, 
0xe0, 0x1f, 
0xe0, 0x3d, 
0xf0, 0x78, 
0xf0, 0x70, 
0x78, 0x00, 
0x78, 0x00, 
0x3c, 0x00, 
0x3c, 0x00, 
0x1e, 0x00, 
0x1e, 0x00, 
0x00, 0x00, 
0x00, 0x00, 
0x00, 0x00, 
0x00, 0x00, 
0x00, 0x00, 
};
