#define psf_width 15
#define psf_height 30
static unsigned char psf_bits[] = {
0x00, 0x00, 
0x00, 0x00, 
0x00, 0x00, 
0x00, 0x00, 
0x00, 0x00, 
0x8e, 0x03, 
0x8e, 0x03, 
0x1c, 0x07, 
0x1c, 0x07, 
0x38, 0x0e, 
0x38, 0x0e, 
0x70, 0x1c, 
0x70, 0x1c, 
0xe0, 0x38, 
0xe0, 0x38, 
0xe0, 0x38, 
0xe0, 0x38, 
0x70, 0x1c, 
0x70, 0x1c, 
0x38, 0x0e, 
0x38, 0x0e, 
0x1c, 0x07, 
0x1c, 0x07, 
0x8e, 0x03, 
0x8e, 0x03, 
0x00, 0x00, 
0x00, 0x00, 
0x00, 0x00, 
0x00, 0x00, 
0x00, 0x00, 
};
