#define psf_width 15
#define psf_height 30
static unsigned char psf_bits[] = {
0x07, 0x00, 
0x07, 0x00, 
0x07, 0x07, 
0x87, 0x0f, 
0xc7, 0x1f, 
0xe7, 0x3f, 
0x77, 0x77, 
0x07, 0x07, 
0x07, 0x07, 
0x07, 0x07, 
0x07, 0x07, 
0x07, 0x07, 
0x07, 0x07, 
0x07, 0x07, 
0x87, 0x03, 
0xc3, 0x01, 
0xe1, 0x00, 
0x70, 0x00, 
0x38, 0x00, 
0x1c, 0x00, 
0x0e, 0x00, 
0x07, 0x00, 
0x07, 0x00, 
0x07, 0x00, 
0x07, 0x00, 
0x07, 0x00, 
0x07, 0x00, 
0x07, 0x00, 
0x07, 0x00, 
0x07, 0x00, 
};
