#define psf_width 15
#define psf_height 30
static unsigned char psf_bits[] = {
0x00, 0x00, 
0x00, 0x00, 
0x0e, 0x00, 
0x0e, 0x00, 
0x0e, 0x00, 
0x0e, 0x00, 
0x0e, 0x00, 
0x0e, 0x00, 
0x0e, 0x00, 
0x0e, 0x00, 
0x0e, 0x00, 
0xfe, 0x03, 
0xfe, 0x03, 
0x00, 0x00, 
0x00, 0x00, 
0x60, 0x38, 
0x60, 0x38, 
0xe0, 0x38, 
0xe0, 0x39, 
0xe0, 0x3b, 
0x60, 0x3f, 
0x60, 0x3e, 
0x60, 0x3c, 
0x60, 0x38, 
0x60, 0x38, 
0x60, 0x38, 
0x00, 0x00, 
0x00, 0x00, 
0x00, 0x00, 
0x00, 0x00, 
};
