#define psf_width 15
#define psf_height 30
static unsigned char psf_bits[] = {
0x01, 0x00, 
0x03, 0x00, 
0x07, 0x00, 
0x0f, 0x00, 
0x1f, 0x00, 
0x3f, 0x00, 
0x7f, 0x00, 
0xff, 0x00, 
0xff, 0x01, 
0xff, 0x03, 
0xff, 0x07, 
0xff, 0x0f, 
0xff, 0x1f, 
0xff, 0x3f, 
0xff, 0x7f, 
0xff, 0x7f, 
0xff, 0x3f, 
0xff, 0x1f, 
0xff, 0x0f, 
0xff, 0x07, 
0xff, 0x03, 
0xff, 0x01, 
0xff, 0x00, 
0x7f, 0x00, 
0x3f, 0x00, 
0x1f, 0x00, 
0x0f, 0x00, 
0x07, 0x00, 
0x03, 0x00, 
0x01, 0x00, 
};
